G04*
G04 #@! TF.GenerationSoftware,Altium Limited,Altium Designer,24.2.2 (26)*
G04*
G04 Layer_Physical_Order=1*
G04 Layer_Color=255*
%FSLAX44Y44*%
%MOMM*%
G71*
G04*
G04 #@! TF.SameCoordinates,0955CF80-6420-4CC4-8797-52894B4AD841*
G04*
G04*
G04 #@! TF.FilePolarity,Positive*
G04*
G01*
G75*
%ADD14C,0.2540*%
%ADD16R,1.2546X1.4562*%
%ADD17R,1.4621X1.2581*%
%ADD18R,1.4562X1.2546*%
G04:AMPARAMS|DCode=19|XSize=1.6042mm|YSize=3.1798mm|CornerRadius=0.4411mm|HoleSize=0mm|Usage=FLASHONLY|Rotation=0.000|XOffset=0mm|YOffset=0mm|HoleType=Round|Shape=RoundedRectangle|*
%AMROUNDEDRECTD19*
21,1,1.6042,2.2975,0,0,0.0*
21,1,0.7219,3.1798,0,0,0.0*
1,1,0.8823,0.3609,-1.1488*
1,1,0.8823,-0.3609,-1.1488*
1,1,0.8823,-0.3609,1.1488*
1,1,0.8823,0.3609,1.1488*
%
%ADD19ROUNDEDRECTD19*%
G04:AMPARAMS|DCode=20|XSize=1.6042mm|YSize=0.8798mm|CornerRadius=0.4399mm|HoleSize=0mm|Usage=FLASHONLY|Rotation=0.000|XOffset=0mm|YOffset=0mm|HoleType=Round|Shape=RoundedRectangle|*
%AMROUNDEDRECTD20*
21,1,1.6042,0.0000,0,0,0.0*
21,1,0.7244,0.8798,0,0,0.0*
1,1,0.8798,0.3622,0.0000*
1,1,0.8798,-0.3622,0.0000*
1,1,0.8798,-0.3622,0.0000*
1,1,0.8798,0.3622,0.0000*
%
%ADD20ROUNDEDRECTD20*%
%ADD21R,1.6042X0.8798*%
%ADD22R,0.8000X0.8000*%
%ADD23R,1.2581X1.4621*%
%ADD24R,2.2000X2.8000*%
%ADD25O,1.6000X0.3000*%
%ADD26O,0.3000X1.6000*%
G04:AMPARAMS|DCode=27|XSize=1.9554mm|YSize=0.4208mm|CornerRadius=0.2104mm|HoleSize=0mm|Usage=FLASHONLY|Rotation=180.000|XOffset=0mm|YOffset=0mm|HoleType=Round|Shape=RoundedRectangle|*
%AMROUNDEDRECTD27*
21,1,1.9554,0.0000,0,0,180.0*
21,1,1.5347,0.4208,0,0,180.0*
1,1,0.4208,-0.7673,0.0000*
1,1,0.4208,0.7673,0.0000*
1,1,0.4208,0.7673,0.0000*
1,1,0.4208,-0.7673,0.0000*
%
%ADD27ROUNDEDRECTD27*%
%ADD28R,1.9554X0.4208*%
%ADD39C,1.6900*%
%ADD40R,1.6900X1.6900*%
%ADD42C,0.7620*%
%ADD43C,0.5080*%
%ADD44C,1.0160*%
%ADD45C,0.3810*%
%ADD46C,1.6000*%
G04:AMPARAMS|DCode=47|XSize=1.6mm|YSize=1.6mm|CornerRadius=0.4mm|HoleSize=0mm|Usage=FLASHONLY|Rotation=180.000|XOffset=0mm|YOffset=0mm|HoleType=Round|Shape=RoundedRectangle|*
%AMROUNDEDRECTD47*
21,1,1.6000,0.8000,0,0,180.0*
21,1,0.8000,1.6000,0,0,180.0*
1,1,0.8000,-0.4000,0.4000*
1,1,0.8000,0.4000,0.4000*
1,1,0.8000,0.4000,-0.4000*
1,1,0.8000,-0.4000,-0.4000*
%
%ADD47ROUNDEDRECTD47*%
%ADD48C,1.8000*%
%ADD49R,1.8000X1.8000*%
%ADD50C,4.0000*%
%ADD51C,1.6500*%
G04:AMPARAMS|DCode=52|XSize=1.65mm|YSize=1.65mm|CornerRadius=0.4125mm|HoleSize=0mm|Usage=FLASHONLY|Rotation=0.000|XOffset=0mm|YOffset=0mm|HoleType=Round|Shape=RoundedRectangle|*
%AMROUNDEDRECTD52*
21,1,1.6500,0.8250,0,0,0.0*
21,1,0.8250,1.6500,0,0,0.0*
1,1,0.8250,0.4125,-0.4125*
1,1,0.8250,-0.4125,-0.4125*
1,1,0.8250,-0.4125,0.4125*
1,1,0.8250,0.4125,0.4125*
%
%ADD52ROUNDEDRECTD52*%
%ADD53C,1.2700*%
G36*
X611844Y419780D02*
X612213Y418564D01*
X610632Y417508D01*
X607492Y414368D01*
X605025Y410677D01*
X603326Y406575D01*
X602460Y402220D01*
Y401270D01*
X625000D01*
Y400000D01*
X626270D01*
Y377460D01*
X627220D01*
X631575Y378326D01*
X635677Y380025D01*
X639368Y382492D01*
X642508Y385632D01*
X643565Y387213D01*
X644780Y386844D01*
X644780Y38156D01*
X643564Y37787D01*
X642508Y39368D01*
X639368Y42508D01*
X635677Y44975D01*
X631575Y46674D01*
X627220Y47540D01*
X626270D01*
Y25000D01*
X625000D01*
Y23730D01*
X602460D01*
Y22780D01*
X603326Y18425D01*
X605025Y14323D01*
X607492Y10632D01*
X610632Y7492D01*
X612213Y6435D01*
X611844Y5220D01*
X38156D01*
X37787Y6435D01*
X39369Y7492D01*
X42508Y10632D01*
X44975Y14324D01*
X46674Y18426D01*
X47540Y22780D01*
Y23730D01*
X25000D01*
Y25000D01*
X23730D01*
Y47540D01*
X22780D01*
X18426Y46674D01*
X14324Y44975D01*
X10632Y42508D01*
X7492Y39369D01*
X6435Y37787D01*
X5220Y38156D01*
Y386845D01*
X6435Y387213D01*
X7492Y385632D01*
X10632Y382492D01*
X14324Y380025D01*
X18426Y378326D01*
X22780Y377460D01*
X23730D01*
Y400000D01*
X25000D01*
Y401270D01*
X47540D01*
Y402220D01*
X46674Y406575D01*
X44975Y410677D01*
X42508Y414369D01*
X39369Y417508D01*
X37788Y418564D01*
X38156Y419780D01*
X611844Y419780D01*
D02*
G37*
%LPC*%
G36*
X47540Y398730D02*
X26270D01*
Y377460D01*
X27220D01*
X31575Y378326D01*
X35677Y380025D01*
X39369Y382492D01*
X42508Y385632D01*
X44975Y389324D01*
X46674Y393426D01*
X47540Y397780D01*
Y398730D01*
D02*
G37*
G36*
X623730Y398730D02*
X602460D01*
Y397780D01*
X603326Y393425D01*
X605025Y389323D01*
X607492Y385632D01*
X610632Y382492D01*
X614323Y380025D01*
X618425Y378326D01*
X622780Y377460D01*
X623730D01*
Y398730D01*
D02*
G37*
G36*
X377338Y371790D02*
X377220D01*
Y362520D01*
X386490D01*
Y362638D01*
X385772Y365318D01*
X384384Y367722D01*
X382422Y369684D01*
X380018Y371072D01*
X377338Y371790D01*
D02*
G37*
G36*
X374680D02*
X374562D01*
X371882Y371072D01*
X369478Y369684D01*
X367516Y367722D01*
X366128Y365318D01*
X365410Y362638D01*
Y362520D01*
X374680D01*
Y371790D01*
D02*
G37*
G36*
X386490Y359980D02*
X377220D01*
Y350710D01*
X377338D01*
X380018Y351428D01*
X382422Y352816D01*
X384384Y354779D01*
X385772Y357182D01*
X386490Y359863D01*
Y359980D01*
D02*
G37*
G36*
X374680D02*
X365410D01*
Y359863D01*
X366128Y357182D01*
X367516Y354779D01*
X369478Y352816D01*
X371882Y351428D01*
X374562Y350710D01*
X374680D01*
Y359980D01*
D02*
G37*
G36*
X155561Y354939D02*
X146270D01*
Y349270D01*
X155561D01*
Y354939D01*
D02*
G37*
G36*
X143730D02*
X134439D01*
Y349270D01*
X143730D01*
Y354939D01*
D02*
G37*
G36*
X256681Y353611D02*
X248130D01*
Y346068D01*
X256681D01*
Y353611D01*
D02*
G37*
G36*
X245590D02*
X237039D01*
Y346068D01*
X245590D01*
Y353611D01*
D02*
G37*
G36*
X287681D02*
X279130D01*
Y346068D01*
X287681D01*
Y353611D01*
D02*
G37*
G36*
X276590D02*
X268039D01*
Y346068D01*
X276590D01*
Y353611D01*
D02*
G37*
G36*
X155561Y346730D02*
X146270D01*
Y341061D01*
X155561D01*
Y346730D01*
D02*
G37*
G36*
X143730D02*
X134439D01*
Y341061D01*
X143730D01*
Y346730D01*
D02*
G37*
G36*
X61540Y348440D02*
X51270D01*
Y338170D01*
X61540D01*
Y348440D01*
D02*
G37*
G36*
X48730D02*
X38460D01*
Y338170D01*
X48730D01*
Y348440D01*
D02*
G37*
G36*
X321943Y355360D02*
X319937D01*
X317999Y354841D01*
X316261Y353838D01*
X314842Y352419D01*
X313839Y350681D01*
X313320Y348743D01*
Y347445D01*
X299337Y333462D01*
X286411D01*
Y335826D01*
X287615Y335985D01*
X287681D01*
Y343528D01*
X277860D01*
X268039D01*
Y338035D01*
X256681D01*
Y343528D01*
X246860D01*
X237039D01*
Y338035D01*
X226289D01*
X213952Y350372D01*
X212980Y350775D01*
X212980Y350775D01*
X177820D01*
X177335Y350574D01*
X176852Y350376D01*
X164519Y338147D01*
X135958Y338389D01*
X135956Y338389D01*
X135954Y338389D01*
X135464Y338190D01*
X134982Y337995D01*
X134981Y337993D01*
X134980Y337993D01*
X128450Y331542D01*
X128449Y331540D01*
X128448Y331539D01*
X128244Y331054D01*
X128041Y330572D01*
X128042Y330570D01*
X128041Y330569D01*
X128005Y320625D01*
X128006Y320622D01*
X128005Y320620D01*
X128206Y320136D01*
X128404Y319652D01*
X128407Y319650D01*
X128408Y319648D01*
X134752Y313305D01*
X134712Y312895D01*
X134376Y312034D01*
X117621Y312034D01*
X116524Y312767D01*
X116518Y313623D01*
X117621Y314185D01*
Y321728D01*
X107800D01*
X97979D01*
Y314185D01*
X99082Y313623D01*
X99075Y312767D01*
X97979Y312034D01*
X51262Y312035D01*
X49622Y312163D01*
X49482Y312118D01*
X49339Y312156D01*
X45969Y311723D01*
X45841Y311650D01*
X45694Y311658D01*
X42484Y310544D01*
X42374Y310446D01*
X42228Y310425D01*
X39314Y308677D01*
X39226Y308559D01*
X39087Y308508D01*
X36593Y306201D01*
X36531Y306067D01*
X36406Y305989D01*
X34436Y303220D01*
X34403Y303076D01*
X34297Y302974D01*
X32936Y299860D01*
X32933Y299713D01*
X32849Y299591D01*
X32154Y296265D01*
X32182Y296120D01*
X32125Y295984D01*
X32125Y294285D01*
X32125Y294285D01*
X32125Y293089D01*
X32125Y174501D01*
X32125Y173294D01*
X32179Y173164D01*
X32151Y173026D01*
X32621Y170659D01*
X32699Y170542D01*
X32699Y170401D01*
X33622Y168172D01*
X33721Y168072D01*
X33749Y167934D01*
X35089Y165927D01*
X35206Y165849D01*
X35260Y165719D01*
X36966Y164013D01*
X37096Y163959D01*
X37174Y163841D01*
X39180Y162501D01*
X39318Y162473D01*
X39418Y162374D01*
X41647Y161450D01*
X41788D01*
X41905Y161372D01*
X44272Y160902D01*
X44410Y160929D01*
X44540Y160875D01*
X45750Y160875D01*
X52003Y160875D01*
X52344Y159605D01*
X50852Y158744D01*
X48806Y156698D01*
X47359Y154192D01*
X46610Y151397D01*
Y151220D01*
X57600D01*
X68590D01*
Y151397D01*
X67841Y154192D01*
X66394Y156698D01*
X64348Y158744D01*
X62856Y159605D01*
X63197Y160875D01*
X66663D01*
X67758Y160821D01*
X69936Y160377D01*
X71949Y159520D01*
X73778Y158257D01*
X74598Y157484D01*
X74603Y157482D01*
X85350Y146316D01*
X85350Y146316D01*
X86496Y145126D01*
X86628Y145068D01*
X86706Y144947D01*
X89427Y143072D01*
X89568Y143042D01*
X89669Y142939D01*
X92710Y141646D01*
X92854Y141644D01*
X92973Y141564D01*
X96211Y140903D01*
X96352Y140931D01*
X96486Y140876D01*
X98138Y140875D01*
X98138Y140875D01*
X98138Y140875D01*
X98184D01*
X99419Y140791D01*
X99419Y139605D01*
Y129332D01*
X97227Y127140D01*
X66969D01*
X66658Y128302D01*
X65378Y130518D01*
X63568Y132328D01*
X61352Y133608D01*
X58880Y134270D01*
X56320D01*
X53848Y133608D01*
X51632Y132328D01*
X49822Y130518D01*
X48542Y128302D01*
X47880Y125830D01*
Y123270D01*
X48542Y120798D01*
X49822Y118582D01*
X51632Y116772D01*
X53848Y115492D01*
X56320Y114830D01*
X58880D01*
X61352Y115492D01*
X63568Y116772D01*
X65378Y118582D01*
X66658Y120798D01*
X66969Y121960D01*
X98300D01*
X99291Y122157D01*
X100131Y122719D01*
X103082Y125669D01*
X116580D01*
Y130640D01*
X122980D01*
X123971Y130837D01*
X124811Y131399D01*
X133823Y140410D01*
X141042D01*
X141326Y140054D01*
X141890Y138933D01*
X141145Y137816D01*
X140883Y136500D01*
X141145Y135184D01*
X141890Y134068D01*
X141326Y132946D01*
X141042Y132590D01*
X132500D01*
X131509Y132393D01*
X130669Y131832D01*
X108478Y109641D01*
X99419D01*
Y101740D01*
X66969D01*
X66658Y102902D01*
X65378Y105118D01*
X63568Y106928D01*
X61352Y108208D01*
X58880Y108870D01*
X56320D01*
X53848Y108208D01*
X51632Y106928D01*
X49822Y105118D01*
X48542Y102902D01*
X47880Y100430D01*
Y97870D01*
X48542Y95398D01*
X49822Y93182D01*
X51632Y91372D01*
X53848Y90092D01*
X56320Y89430D01*
X58880D01*
X61352Y90092D01*
X63568Y91372D01*
X65378Y93182D01*
X66658Y95398D01*
X66969Y96560D01*
X99419D01*
Y94519D01*
X115334D01*
X115745Y94519D01*
X116742Y93412D01*
X116729Y93103D01*
X113802Y90175D01*
X111751D01*
X111375Y90101D01*
X99419D01*
Y74979D01*
X116581D01*
Y82639D01*
X116897Y82702D01*
X118158Y83544D01*
X129687Y95073D01*
X130529Y96333D01*
X130825Y97820D01*
Y103841D01*
X146599Y119615D01*
X165124D01*
X166611Y119911D01*
X167871Y120753D01*
X174261Y127142D01*
X175103Y128403D01*
X175399Y129889D01*
Y133913D01*
X176679Y134653D01*
X178097Y136071D01*
X179101Y137809D01*
X179620Y139747D01*
Y141753D01*
X179101Y143691D01*
X178097Y145429D01*
X176679Y146847D01*
X174941Y147851D01*
X173003Y148370D01*
X170997D01*
X169059Y147851D01*
X167321Y146847D01*
X165903Y145429D01*
X164899Y143691D01*
X164380Y141753D01*
Y139747D01*
X164899Y137809D01*
X165903Y136071D01*
X167321Y134653D01*
X167629Y134475D01*
Y131498D01*
X164448Y128317D01*
X164053Y128376D01*
X163071Y129805D01*
X163109Y130000D01*
X162847Y131317D01*
X162102Y132433D01*
X162021Y132486D01*
Y134014D01*
X162102Y134068D01*
X162847Y135184D01*
X163109Y136500D01*
X162847Y137816D01*
X162102Y138933D01*
X162021Y138986D01*
Y140514D01*
X162102Y140568D01*
X162847Y141684D01*
X163109Y143000D01*
X162847Y144316D01*
X162102Y145432D01*
X162021Y145486D01*
Y147014D01*
X162102Y147067D01*
X162847Y148183D01*
X163109Y149500D01*
X162847Y150816D01*
X162102Y151932D01*
X162021Y151986D01*
Y153514D01*
X162102Y153568D01*
X162847Y154684D01*
X163109Y156000D01*
X162847Y157317D01*
X162828Y157345D01*
X163507Y158615D01*
X172141D01*
X185115Y145641D01*
Y132671D01*
X185411Y131185D01*
X186253Y129924D01*
X195424Y120753D01*
X196685Y119911D01*
X198171Y119615D01*
X214696D01*
X224397Y109913D01*
X225658Y109071D01*
X227144Y108776D01*
X245090D01*
Y103870D01*
X262251D01*
Y107546D01*
X271748D01*
X273235Y107841D01*
X274495Y108684D01*
X275978Y110167D01*
X277347Y109800D01*
X279353D01*
X280608Y110136D01*
X281265Y108997D01*
X238547Y66279D01*
X236903Y66720D01*
X234397D01*
X231975Y66071D01*
X229805Y64818D01*
X228032Y63045D01*
X226779Y60874D01*
X226130Y58453D01*
Y55946D01*
X226779Y53525D01*
X228032Y51354D01*
X229805Y49582D01*
X231975Y48329D01*
X234397Y47680D01*
X236903D01*
X239325Y48329D01*
X241495Y49582D01*
X243268Y51354D01*
X244521Y53525D01*
X245170Y55946D01*
X246400Y55851D01*
Y51063D01*
X236763Y41425D01*
X231525D01*
X229420Y41007D01*
X227635Y39814D01*
X226443Y38030D01*
X226024Y35925D01*
Y27675D01*
X226443Y25570D01*
X227635Y23785D01*
X229420Y22593D01*
X231525Y22174D01*
X239775D01*
X241880Y22593D01*
X243665Y23785D01*
X244857Y25570D01*
X245276Y27675D01*
Y35925D01*
X244857Y38030D01*
X243665Y39814D01*
X243558Y40896D01*
X250821Y48159D01*
X251383Y48999D01*
X251580Y49990D01*
Y52023D01*
X252850Y52363D01*
X253432Y51354D01*
X255205Y49582D01*
X257376Y48329D01*
X259797Y47680D01*
X262303D01*
X264725Y48329D01*
X266895Y49582D01*
X268668Y51354D01*
X269140Y52172D01*
X270410Y51832D01*
Y44823D01*
X265697Y40110D01*
X264725Y40671D01*
X262303Y41320D01*
X259797D01*
X257376Y40671D01*
X255205Y39418D01*
X253432Y37645D01*
X252179Y35474D01*
X251530Y33053D01*
Y30546D01*
X252179Y28125D01*
X253432Y25954D01*
X255205Y24182D01*
X257376Y22929D01*
X259797Y22280D01*
X262303D01*
X264725Y22929D01*
X266895Y24182D01*
X268668Y25954D01*
X269921Y28125D01*
X270570Y30546D01*
Y33053D01*
X269921Y35474D01*
X269360Y36447D01*
X274831Y41919D01*
X275393Y42759D01*
X275590Y43750D01*
Y79833D01*
X282687Y86930D01*
X283860Y86444D01*
Y66362D01*
X282775Y66071D01*
X280605Y64818D01*
X278832Y63045D01*
X277579Y60874D01*
X276930Y58453D01*
Y55946D01*
X277579Y53525D01*
X278832Y51354D01*
X280605Y49582D01*
X282775Y48329D01*
X285197Y47680D01*
X287703D01*
X290125Y48329D01*
X292295Y49582D01*
X294068Y51354D01*
X295321Y53525D01*
X295970Y55946D01*
X297200Y55851D01*
Y49613D01*
X288653Y41065D01*
X287703Y41320D01*
X285197D01*
X282775Y40671D01*
X280605Y39418D01*
X278832Y37645D01*
X277579Y35474D01*
X276930Y33053D01*
Y30546D01*
X277579Y28125D01*
X278832Y25954D01*
X280605Y24182D01*
X282775Y22929D01*
X285197Y22280D01*
X287703D01*
X290125Y22929D01*
X292295Y24182D01*
X294068Y25954D01*
X295321Y28125D01*
X295970Y30546D01*
Y33053D01*
X295321Y35474D01*
X294068Y37645D01*
X293313Y38400D01*
X301621Y46709D01*
X302183Y47549D01*
X302380Y48540D01*
Y52023D01*
X303650Y52363D01*
X304232Y51354D01*
X306005Y49582D01*
X308176Y48329D01*
X310597Y47680D01*
X313103D01*
X315525Y48329D01*
X317695Y49582D01*
X319468Y51354D01*
X320721Y53525D01*
X321370Y55946D01*
Y58453D01*
X320721Y60874D01*
X319468Y63045D01*
X317695Y64818D01*
X315525Y66071D01*
X314440Y66362D01*
Y164277D01*
X334948Y184785D01*
X335500Y184676D01*
X348500D01*
X349581Y184890D01*
X350497Y185503D01*
X351109Y186419D01*
X351324Y187500D01*
X351109Y188580D01*
X350738Y189136D01*
X350586Y190000D01*
X350738Y190863D01*
X351109Y191419D01*
X351324Y192500D01*
X351109Y193581D01*
X350738Y194137D01*
X350586Y195000D01*
X350738Y195864D01*
X351109Y196419D01*
X351324Y197500D01*
X352475Y198008D01*
X353062Y198070D01*
X369263Y181869D01*
Y178563D01*
X368770Y178159D01*
Y167000D01*
X366230D01*
Y177366D01*
X365924Y177306D01*
X364587Y176413D01*
X364137Y175738D01*
X363581Y176109D01*
X362500Y176324D01*
X361419Y176109D01*
X360503Y175497D01*
X359891Y174581D01*
X359676Y173500D01*
Y160500D01*
X359891Y159419D01*
X359910Y159390D01*
Y145073D01*
X326419Y111581D01*
X325857Y110741D01*
X325660Y109750D01*
Y49272D01*
X316497Y40110D01*
X315525Y40671D01*
X313103Y41320D01*
X310597D01*
X308176Y40671D01*
X306005Y39418D01*
X304232Y37645D01*
X302979Y35474D01*
X302330Y33053D01*
Y30546D01*
X302979Y28125D01*
X304232Y25954D01*
X306005Y24182D01*
X308176Y22929D01*
X310597Y22280D01*
X313103D01*
X315525Y22929D01*
X317695Y24182D01*
X319468Y25954D01*
X320721Y28125D01*
X321370Y30546D01*
Y33053D01*
X320721Y35474D01*
X320160Y36447D01*
X330081Y46368D01*
X330643Y47209D01*
X330840Y48200D01*
Y108677D01*
X364331Y142169D01*
X364893Y143009D01*
X365090Y144000D01*
Y155840D01*
X366360Y156608D01*
X367500Y156381D01*
X368403Y155640D01*
Y142466D01*
X362641Y136705D01*
X361799Y135445D01*
X361504Y133958D01*
Y124287D01*
X361219Y124211D01*
X359481Y123208D01*
X358063Y121789D01*
X357059Y120051D01*
X356540Y118113D01*
Y116107D01*
X357059Y114169D01*
X358063Y112431D01*
X359481Y111012D01*
X361219Y110009D01*
X363157Y109490D01*
X365163D01*
X367101Y110009D01*
X368839Y111012D01*
X370257Y112431D01*
X371261Y114169D01*
X371780Y116107D01*
Y118113D01*
X371261Y120051D01*
X370257Y121789D01*
X369273Y122773D01*
Y132349D01*
X374270Y137346D01*
X375540Y136820D01*
Y115453D01*
X361819Y101731D01*
X361257Y100891D01*
X361060Y99900D01*
Y66362D01*
X359975Y66071D01*
X357804Y64818D01*
X356032Y63045D01*
X354779Y60874D01*
X354130Y58453D01*
Y55946D01*
X354779Y53525D01*
X356032Y51354D01*
X357804Y49582D01*
X359975Y48329D01*
X362396Y47680D01*
X364903D01*
X367324Y48329D01*
X369495Y49582D01*
X371268Y51354D01*
X372140Y52866D01*
X373410Y52525D01*
Y45223D01*
X369308Y41121D01*
X367775Y41425D01*
X359525D01*
X357420Y41007D01*
X355635Y39814D01*
X354443Y38030D01*
X354024Y35925D01*
Y27675D01*
X354443Y25570D01*
X355635Y23785D01*
X357420Y22593D01*
X359525Y22174D01*
X367775D01*
X369880Y22593D01*
X371664Y23785D01*
X372857Y25570D01*
X373275Y27675D01*
Y35925D01*
X372971Y37458D01*
X377831Y42319D01*
X378393Y43159D01*
X378590Y44150D01*
Y54548D01*
X379860Y54715D01*
X380178Y53525D01*
X381432Y51354D01*
X383204Y49582D01*
X385375Y48329D01*
X387796Y47680D01*
X390303D01*
X392724Y48329D01*
X394895Y49582D01*
X396668Y51354D01*
X397640Y53039D01*
X398910Y52699D01*
Y45323D01*
X393697Y40110D01*
X392724Y40671D01*
X390303Y41320D01*
X387796D01*
X385375Y40671D01*
X383204Y39418D01*
X381432Y37645D01*
X380178Y35474D01*
X379530Y33053D01*
Y30546D01*
X380178Y28125D01*
X381432Y25954D01*
X383204Y24182D01*
X385375Y22929D01*
X387796Y22280D01*
X390303D01*
X392724Y22929D01*
X394895Y24182D01*
X396668Y25954D01*
X397921Y28125D01*
X398570Y30546D01*
Y33053D01*
X397921Y35474D01*
X397360Y36447D01*
X403331Y42419D01*
X403893Y43259D01*
X404090Y44250D01*
Y54174D01*
X405360Y54342D01*
X405578Y53525D01*
X406832Y51354D01*
X408604Y49582D01*
X410775Y48329D01*
X413196Y47680D01*
X415703D01*
X418124Y48329D01*
X420295Y49582D01*
X422068Y51354D01*
X423140Y53212D01*
X424410Y52872D01*
Y45423D01*
X419097Y40110D01*
X418124Y40671D01*
X415703Y41320D01*
X413196D01*
X410775Y40671D01*
X408604Y39418D01*
X406832Y37645D01*
X405578Y35474D01*
X404930Y33053D01*
Y30546D01*
X405578Y28125D01*
X406832Y25954D01*
X408604Y24182D01*
X410775Y22929D01*
X413196Y22280D01*
X415703D01*
X418124Y22929D01*
X420295Y24182D01*
X422068Y25954D01*
X423321Y28125D01*
X423970Y30546D01*
Y33053D01*
X423321Y35474D01*
X422760Y36447D01*
X428831Y42519D01*
X429393Y43359D01*
X429590Y44350D01*
Y53801D01*
X430860Y53968D01*
X430979Y53525D01*
X432232Y51354D01*
X434004Y49582D01*
X436175Y48329D01*
X438596Y47680D01*
X441103D01*
X443524Y48329D01*
X445695Y49582D01*
X447468Y51354D01*
X448140Y52519D01*
X449410Y52179D01*
Y45023D01*
X444497Y40110D01*
X443524Y40671D01*
X441103Y41320D01*
X438596D01*
X436175Y40671D01*
X434004Y39418D01*
X432232Y37645D01*
X430979Y35474D01*
X430330Y33053D01*
Y30546D01*
X430979Y28125D01*
X432232Y25954D01*
X434004Y24182D01*
X436175Y22929D01*
X438596Y22280D01*
X441103D01*
X443524Y22929D01*
X445695Y24182D01*
X447468Y25954D01*
X448721Y28125D01*
X449370Y30546D01*
Y33053D01*
X448721Y35474D01*
X448159Y36447D01*
X453831Y42119D01*
X454393Y42959D01*
X454590Y43950D01*
Y85202D01*
X455860Y85728D01*
X465910Y75677D01*
Y54950D01*
X466107Y53959D01*
X466669Y53119D01*
X482329Y37458D01*
X482024Y35925D01*
Y27675D01*
X482443Y25570D01*
X483635Y23785D01*
X485420Y22593D01*
X487525Y22174D01*
X495775D01*
X497880Y22593D01*
X499665Y23785D01*
X500857Y25570D01*
X501276Y27675D01*
Y35925D01*
X500857Y38030D01*
X499665Y39814D01*
X497880Y41007D01*
X495775Y41425D01*
X487525D01*
X485992Y41121D01*
X471090Y56023D01*
Y76750D01*
X470893Y77741D01*
X470331Y78581D01*
X420090Y128823D01*
Y157252D01*
X421360Y157930D01*
X421419Y157891D01*
X422500Y157676D01*
X423581Y157891D01*
X424136Y158262D01*
X425000Y158414D01*
X425863Y158262D01*
X426419Y157891D01*
X427500Y157676D01*
X428581Y157891D01*
X429137Y158262D01*
X429587Y157587D01*
X430924Y156694D01*
X431230Y156633D01*
Y167000D01*
Y177366D01*
X430924Y177306D01*
X429587Y176413D01*
X429137Y175738D01*
X428581Y176109D01*
X427500Y176324D01*
X426419Y176109D01*
X425863Y175738D01*
X425000Y175586D01*
X424136Y175738D01*
X423581Y176109D01*
X422500Y176324D01*
X421419Y176109D01*
X420503Y175497D01*
X419497D01*
X418581Y176109D01*
X417500Y176324D01*
X416419Y176109D01*
X415863Y175738D01*
X415000Y175586D01*
X414136Y175738D01*
X413581Y176109D01*
X412500Y176324D01*
X411419Y176109D01*
X410503Y175497D01*
X409497D01*
X408581Y176109D01*
X407500Y176324D01*
X406419Y176109D01*
X405863Y175738D01*
X405000Y175586D01*
X404136Y175738D01*
X403581Y176109D01*
X402500Y176324D01*
X401419Y176109D01*
X400503Y175497D01*
X399497D01*
X398581Y176109D01*
X397500Y176324D01*
X396419Y176109D01*
X395863Y175738D01*
X395000Y175586D01*
X394136Y175738D01*
X393581Y176109D01*
X392500Y176324D01*
X391419Y176109D01*
X390503Y175497D01*
X389497D01*
X388581Y176109D01*
X387500Y176324D01*
X386419Y176109D01*
X385864Y175738D01*
X385000Y175586D01*
X384136Y175738D01*
X383581Y176109D01*
X382500Y176324D01*
X381419Y176109D01*
X380503Y175497D01*
X379497D01*
X378581Y176109D01*
X377500Y176324D01*
X377007Y176226D01*
X375737Y177065D01*
Y183210D01*
X375491Y184449D01*
X374789Y185499D01*
X355824Y204464D01*
X354774Y205166D01*
X353535Y205412D01*
X353375D01*
X352783Y206230D01*
X342000D01*
X331633D01*
X331694Y205924D01*
X332587Y204588D01*
X333262Y204137D01*
X332891Y203581D01*
X332676Y202500D01*
X332891Y201419D01*
X332930Y201360D01*
X332251Y200090D01*
X328500D01*
X327509Y199893D01*
X326669Y199331D01*
X304183Y176846D01*
X303010Y177332D01*
Y182097D01*
X330227Y209315D01*
X331614Y209035D01*
X331672Y208963D01*
X331633Y208770D01*
X342000D01*
X352366D01*
X352305Y209076D01*
X351413Y210413D01*
X350738Y210864D01*
X351109Y211419D01*
X351324Y212500D01*
X351109Y213581D01*
X350738Y214137D01*
X350586Y215000D01*
X350738Y215864D01*
X351109Y216419D01*
X351324Y217500D01*
X351109Y218581D01*
X350738Y219137D01*
X350586Y220000D01*
X350738Y220864D01*
X351109Y221419D01*
X351324Y222500D01*
X351109Y223581D01*
X350738Y224137D01*
X350586Y225000D01*
X350738Y225863D01*
X351109Y226419D01*
X351324Y227500D01*
X351115Y228552D01*
X351110Y228582D01*
X351807Y229822D01*
X358765D01*
X385669Y202919D01*
X386509Y202357D01*
X387500Y202160D01*
X422305D01*
X422399Y201809D01*
X423402Y200071D01*
X424821Y198652D01*
X426559Y197649D01*
X428497Y197130D01*
X430503D01*
X432441Y197649D01*
X434179Y198652D01*
X435597Y200071D01*
X436601Y201809D01*
X437120Y203747D01*
Y205753D01*
X436601Y207691D01*
X435597Y209429D01*
X434179Y210847D01*
X432441Y211851D01*
X430503Y212370D01*
X428497D01*
X426559Y211851D01*
X424821Y210847D01*
X423402Y209429D01*
X422399Y207691D01*
X422305Y207340D01*
X388573D01*
X361669Y234243D01*
X360829Y234805D01*
X359838Y235002D01*
X351689D01*
X351010Y236272D01*
X351109Y236419D01*
X351324Y237500D01*
X351109Y238581D01*
X350738Y239137D01*
X350586Y240000D01*
X350738Y240864D01*
X351109Y241419D01*
X351324Y242500D01*
X351109Y243581D01*
X350738Y244137D01*
X350586Y245000D01*
X350738Y245863D01*
X351109Y246419D01*
X351324Y247500D01*
X351109Y248581D01*
X350738Y249136D01*
X350586Y250000D01*
X350738Y250864D01*
X351109Y251419D01*
X351324Y252500D01*
X351109Y253581D01*
X350738Y254137D01*
X350586Y255000D01*
X350738Y255863D01*
X351109Y256419D01*
X351324Y257500D01*
X351109Y258581D01*
X351037Y258689D01*
X351621Y260100D01*
X351690Y260114D01*
X352950Y260956D01*
X363997Y272003D01*
X364205Y272315D01*
X365922Y272696D01*
X365924Y272695D01*
X366230Y272634D01*
Y283000D01*
Y293367D01*
X365924Y293306D01*
X364587Y292413D01*
X364137Y291738D01*
X363581Y292110D01*
X362500Y292325D01*
X361419Y292110D01*
X360503Y291497D01*
X359891Y290581D01*
X359676Y289500D01*
Y286780D01*
X358503Y285997D01*
X357661Y284737D01*
X357365Y283250D01*
Y276359D01*
X348594Y267588D01*
X326148D01*
X320801Y272935D01*
Y286035D01*
X322005Y286195D01*
X322071D01*
Y293738D01*
X312250D01*
X302429D01*
Y289161D01*
X301159Y288635D01*
X296665Y293129D01*
Y323103D01*
X301482D01*
X303465Y323497D01*
X305145Y324620D01*
X320645Y340120D01*
X321943D01*
X323881Y340639D01*
X325619Y341642D01*
X327038Y343061D01*
X328041Y344799D01*
X328560Y346737D01*
Y348743D01*
X328041Y350681D01*
X327038Y352419D01*
X325619Y353838D01*
X323881Y354841D01*
X321943Y355360D01*
D02*
G37*
G36*
X453371Y370520D02*
X450930D01*
X448572Y369888D01*
X446458Y368668D01*
X444732Y366942D01*
X443512Y364828D01*
X442880Y362471D01*
Y360030D01*
X443512Y357672D01*
X444732Y355558D01*
X446458Y353832D01*
X448572Y352612D01*
X449360Y352401D01*
Y341749D01*
X448809Y341601D01*
X447071Y340597D01*
X445653Y339179D01*
X444649Y337441D01*
X444130Y335503D01*
Y333497D01*
X444649Y331559D01*
X445653Y329821D01*
X447071Y328402D01*
X448809Y327399D01*
X450747Y326880D01*
X452753D01*
X454691Y327399D01*
X456429Y328402D01*
X457848Y329821D01*
X458851Y331559D01*
X459370Y333497D01*
Y335503D01*
X458851Y337441D01*
X457848Y339179D01*
X456429Y340597D01*
X454691Y341601D01*
X454540Y341641D01*
Y352294D01*
X455728Y352612D01*
X457842Y353832D01*
X459568Y355558D01*
X460788Y357672D01*
X461420Y360030D01*
Y362471D01*
X460788Y364828D01*
X459568Y366942D01*
X457842Y368668D01*
X455728Y369888D01*
X453371Y370520D01*
D02*
G37*
G36*
X61540Y335630D02*
X51270D01*
Y325360D01*
X61540D01*
Y335630D01*
D02*
G37*
G36*
X48730D02*
X38460D01*
Y325360D01*
X48730D01*
Y335630D01*
D02*
G37*
G36*
X117621Y331811D02*
X109070D01*
Y324268D01*
X117621D01*
Y331811D01*
D02*
G37*
G36*
X106530D02*
X97979D01*
Y324268D01*
X106530D01*
Y331811D01*
D02*
G37*
G36*
X501451Y323971D02*
X493908D01*
Y315420D01*
X501451D01*
Y323971D01*
D02*
G37*
G36*
X548311Y317351D02*
X540750D01*
Y308770D01*
X548311D01*
Y317351D01*
D02*
G37*
G36*
X538210D02*
X530649D01*
Y308770D01*
X538210D01*
Y317351D01*
D02*
G37*
G36*
X501451Y312880D02*
X493908D01*
Y304329D01*
X501451D01*
Y312880D01*
D02*
G37*
G36*
X570660Y382980D02*
X494100D01*
X492118Y382585D01*
X490438Y381463D01*
X479598Y370623D01*
X473550D01*
X471494Y370214D01*
X469751Y369050D01*
X468586Y367306D01*
X468177Y365250D01*
Y357250D01*
X468586Y355194D01*
X469751Y353451D01*
X471494Y352286D01*
X471657Y352254D01*
Y322701D01*
X468579D01*
Y305599D01*
X470943D01*
Y289951D01*
X468579D01*
Y280174D01*
X459035Y270630D01*
X458400D01*
X456418Y270235D01*
X454738Y269112D01*
X453615Y267432D01*
X453220Y265450D01*
X453117Y265324D01*
X451500D01*
X450419Y265109D01*
X449503Y264497D01*
X448891Y263581D01*
X448676Y262500D01*
X448891Y261419D01*
X449262Y260863D01*
X448587Y260413D01*
X447695Y259076D01*
X447634Y258770D01*
X458000D01*
X468367D01*
X468306Y259076D01*
X467413Y260413D01*
X466738Y260863D01*
X467109Y261419D01*
X467324Y262500D01*
X467109Y263581D01*
X466920Y263865D01*
X475904Y272849D01*
X483665Y272849D01*
X483825Y271645D01*
Y271579D01*
X491368D01*
Y281400D01*
Y291221D01*
X483825D01*
Y291155D01*
X483665Y289951D01*
X482200Y289951D01*
X481302Y290849D01*
Y304701D01*
X482200Y305599D01*
X483665Y305599D01*
X483825Y304395D01*
Y304329D01*
X491368D01*
Y314150D01*
Y323971D01*
X483825D01*
Y323905D01*
X483787Y323624D01*
X482446Y323169D01*
X482016Y323599D01*
Y351969D01*
X483606Y352286D01*
X485350Y353451D01*
X486514Y355194D01*
X486923Y357250D01*
Y363298D01*
X496245Y372621D01*
X568515D01*
X603070Y338065D01*
Y330770D01*
X595980D01*
Y300230D01*
X620520D01*
Y330770D01*
X613429D01*
Y340210D01*
X613035Y342192D01*
X611912Y343873D01*
X574323Y381463D01*
X572642Y382585D01*
X570660Y382980D01*
D02*
G37*
G36*
X548311Y306230D02*
X540750D01*
Y297649D01*
X548311D01*
Y306230D01*
D02*
G37*
G36*
X538210D02*
X530649D01*
Y297649D01*
X538210D01*
Y306230D01*
D02*
G37*
G36*
X322071Y303821D02*
X313520D01*
Y296278D01*
X322071D01*
Y303821D01*
D02*
G37*
G36*
X310980D02*
X302429D01*
Y296278D01*
X310980D01*
Y303821D01*
D02*
G37*
G36*
X427971Y370520D02*
X425530D01*
X423172Y369888D01*
X421058Y368668D01*
X419332Y366942D01*
X418112Y364828D01*
X417480Y362471D01*
Y360030D01*
X418112Y357672D01*
X419332Y355558D01*
X421058Y353832D01*
X423172Y352612D01*
X424160Y352347D01*
Y328991D01*
X424357Y328000D01*
X424919Y327160D01*
X434910Y317169D01*
Y292749D01*
X433640Y292070D01*
X433581Y292110D01*
X432500Y292325D01*
X431419Y292110D01*
X430503Y291497D01*
X429497D01*
X428581Y292110D01*
X427500Y292325D01*
X426419Y292110D01*
X425863Y291738D01*
X425000Y291586D01*
X424136Y291738D01*
X423581Y292110D01*
X422500Y292325D01*
X421419Y292110D01*
X420503Y291497D01*
X419497D01*
X418581Y292110D01*
X417500Y292325D01*
X416419Y292110D01*
X415863Y291738D01*
X415000Y291586D01*
X414136Y291738D01*
X413581Y292110D01*
X412500Y292325D01*
X411419Y292110D01*
X411360Y292070D01*
X410090Y292749D01*
Y320541D01*
X409892Y321533D01*
X409331Y322373D01*
X403940Y327764D01*
Y352347D01*
X404928Y352612D01*
X407042Y353832D01*
X408768Y355558D01*
X409988Y357672D01*
X410620Y360030D01*
Y362471D01*
X409988Y364828D01*
X408768Y366942D01*
X407042Y368668D01*
X404928Y369888D01*
X402570Y370520D01*
X400130D01*
X397772Y369888D01*
X395658Y368668D01*
X393932Y366942D01*
X392712Y364828D01*
X392080Y362471D01*
Y360030D01*
X392712Y357672D01*
X393932Y355558D01*
X395658Y353832D01*
X397772Y352612D01*
X398760Y352347D01*
Y326691D01*
X398957Y325700D01*
X399519Y324860D01*
X404910Y319469D01*
Y292749D01*
X403640Y292070D01*
X403581Y292110D01*
X402500Y292325D01*
X401419Y292110D01*
X400503Y291497D01*
X399497D01*
X398581Y292110D01*
X397500Y292325D01*
X396419Y292110D01*
X395863Y291738D01*
X395000Y291586D01*
X394136Y291738D01*
X393581Y292110D01*
X392500Y292325D01*
X391419Y292110D01*
X390503Y291497D01*
X389497D01*
X388581Y292110D01*
X387500Y292325D01*
X386419Y292110D01*
X385864Y291738D01*
X385000Y291586D01*
X384136Y291738D01*
X383581Y292110D01*
X382500Y292325D01*
X381419Y292110D01*
X380503Y291497D01*
X379497D01*
X378581Y292110D01*
X377500Y292325D01*
X376419Y292110D01*
X375864Y291738D01*
X375000Y291586D01*
X374136Y291738D01*
X373581Y292110D01*
X372500Y292325D01*
X371419Y292110D01*
X370863Y291738D01*
X370413Y292413D01*
X369076Y293306D01*
X368770Y293367D01*
Y283000D01*
Y272634D01*
X369076Y272695D01*
X370413Y273587D01*
X370863Y274262D01*
X371419Y273891D01*
X372500Y273676D01*
X373581Y273891D01*
X374136Y274262D01*
X375000Y274414D01*
X375864Y274262D01*
X376419Y273891D01*
X377500Y273676D01*
X378581Y273891D01*
X378640Y273931D01*
X379910Y273252D01*
Y264500D01*
X380107Y263509D01*
X380669Y262669D01*
X386331Y257006D01*
X386149Y256691D01*
X385630Y254753D01*
Y252747D01*
X386149Y250809D01*
X387152Y249071D01*
X388571Y247652D01*
X390309Y246649D01*
X392247Y246130D01*
X394253D01*
X396191Y246649D01*
X397929Y247652D01*
X399347Y249071D01*
X400351Y250809D01*
X400870Y252747D01*
Y254753D01*
X400351Y256691D01*
X399347Y258429D01*
X397929Y259848D01*
X396191Y260851D01*
X394253Y261370D01*
X392247D01*
X390309Y260851D01*
X389994Y260669D01*
X385090Y265573D01*
Y273252D01*
X386360Y273930D01*
X386419Y273891D01*
X387500Y273676D01*
X388581Y273891D01*
X389497Y274503D01*
X390503D01*
X391419Y273891D01*
X392500Y273676D01*
X393581Y273891D01*
X394136Y274262D01*
X395000Y274414D01*
X395863Y274262D01*
X396419Y273891D01*
X397500Y273676D01*
X398581Y273891D01*
X399497Y274503D01*
X400503D01*
X401419Y273891D01*
X402500Y273676D01*
X403581Y273891D01*
X404136Y274262D01*
X405000Y274414D01*
X405863Y274262D01*
X406419Y273891D01*
X407500Y273676D01*
X408581Y273891D01*
X409497Y274503D01*
X410503D01*
X411419Y273891D01*
X412500Y273676D01*
X413581Y273891D01*
X414136Y274262D01*
X415000Y274414D01*
X415863Y274262D01*
X416419Y273891D01*
X417500Y273676D01*
X418581Y273891D01*
X419497Y274503D01*
X420503D01*
X421419Y273891D01*
X422500Y273676D01*
X423581Y273891D01*
X424136Y274262D01*
X425000Y274414D01*
X425863Y274262D01*
X426419Y273891D01*
X427500Y273676D01*
X428581Y273891D01*
X429497Y274503D01*
X430503D01*
X431419Y273891D01*
X432500Y273676D01*
X433581Y273891D01*
X434136Y274262D01*
X435000Y274414D01*
X435863Y274262D01*
X436419Y273891D01*
X437500Y273676D01*
X438581Y273891D01*
X439497Y274503D01*
X440109Y275419D01*
X440324Y276500D01*
Y289500D01*
X440109Y290581D01*
X440089Y290610D01*
Y318242D01*
X439892Y319233D01*
X439331Y320073D01*
X429340Y330064D01*
Y352347D01*
X430328Y352612D01*
X432442Y353832D01*
X434168Y355558D01*
X435388Y357672D01*
X436020Y360030D01*
Y362471D01*
X435388Y364828D01*
X434168Y366942D01*
X432442Y368668D01*
X430328Y369888D01*
X427971Y370520D01*
D02*
G37*
G36*
X501451Y291221D02*
X493908D01*
Y282670D01*
X501451D01*
Y291221D01*
D02*
G37*
G36*
Y280130D02*
X493908D01*
Y271579D01*
X501451D01*
Y280130D01*
D02*
G37*
G36*
X566581Y316080D02*
X551459D01*
Y298919D01*
X556430D01*
Y278581D01*
X551459D01*
Y261420D01*
X566581D01*
Y264910D01*
X595980D01*
Y252230D01*
X620520D01*
Y282770D01*
X595980D01*
Y270089D01*
X566581D01*
Y278581D01*
X561610D01*
Y298919D01*
X566581D01*
Y316080D01*
D02*
G37*
G36*
X547041Y278581D02*
X531920D01*
Y265082D01*
X517313Y250475D01*
X515788Y250641D01*
X515477Y251179D01*
X514059Y252598D01*
X512321Y253601D01*
X510383Y254120D01*
X508377D01*
X506439Y253601D01*
X504701Y252598D01*
X503283Y251179D01*
X502279Y249441D01*
X501760Y247503D01*
Y245497D01*
X502279Y243559D01*
X503283Y241821D01*
X504701Y240403D01*
X506439Y239399D01*
X508377Y238880D01*
X510383D01*
X512321Y239399D01*
X514059Y240403D01*
X515477Y241821D01*
X516481Y243559D01*
X516798Y244744D01*
X517834D01*
X518825Y244942D01*
X519665Y245503D01*
X535582Y261420D01*
X547041D01*
Y278581D01*
D02*
G37*
G36*
X430503Y268870D02*
X428497D01*
X426559Y268351D01*
X424821Y267348D01*
X423402Y265929D01*
X422399Y264191D01*
X421880Y262253D01*
Y260247D01*
X422399Y258309D01*
X423402Y256571D01*
X424821Y255152D01*
X426559Y254149D01*
X428497Y253630D01*
X430503D01*
X432242Y254096D01*
X435669Y250669D01*
X436509Y250107D01*
X437500Y249910D01*
X448251D01*
X448930Y248640D01*
X448891Y248581D01*
X448676Y247500D01*
X448891Y246419D01*
X449262Y245863D01*
X449414Y245000D01*
X449262Y244137D01*
X448891Y243581D01*
X448676Y242500D01*
X448885Y241448D01*
X448890Y241418D01*
X448193Y240178D01*
X437120D01*
Y240253D01*
X436601Y242191D01*
X435597Y243929D01*
X434179Y245347D01*
X432441Y246351D01*
X430503Y246870D01*
X428497D01*
X426559Y246351D01*
X424821Y245347D01*
X423402Y243929D01*
X422399Y242191D01*
X421880Y240253D01*
Y238247D01*
X422399Y236309D01*
X423402Y234571D01*
X424821Y233152D01*
X426559Y232149D01*
X428497Y231630D01*
X430503D01*
X430733Y231691D01*
X431390Y230553D01*
X430457Y229620D01*
X428497D01*
X426559Y229101D01*
X424821Y228097D01*
X423402Y226679D01*
X422399Y224941D01*
X421880Y223003D01*
Y220997D01*
X422399Y219059D01*
X423402Y217321D01*
X424821Y215903D01*
X426559Y214899D01*
X428497Y214380D01*
X430503D01*
X432441Y214899D01*
X434179Y215903D01*
X435597Y217321D01*
X436601Y219059D01*
X437120Y220997D01*
Y223003D01*
X436601Y224941D01*
X435597Y226679D01*
X435219Y227057D01*
X438073Y229910D01*
X448251D01*
X448930Y228640D01*
X448891Y228581D01*
X448676Y227500D01*
X448891Y226419D01*
X449262Y225863D01*
X449414Y225000D01*
X449262Y224137D01*
X448891Y223581D01*
X448676Y222500D01*
X448891Y221419D01*
X449262Y220864D01*
X449414Y220000D01*
X449262Y219137D01*
X448891Y218581D01*
X448676Y217500D01*
X448891Y216419D01*
X449262Y215864D01*
X449414Y215000D01*
X449262Y214137D01*
X448891Y213581D01*
X448676Y212500D01*
X448891Y211419D01*
X449262Y210864D01*
X449414Y210000D01*
X449262Y209137D01*
X448891Y208581D01*
X448676Y207500D01*
X448891Y206419D01*
X449262Y205864D01*
X449414Y205000D01*
X449262Y204137D01*
X448891Y203581D01*
X448676Y202500D01*
X448891Y201419D01*
X449262Y200864D01*
X449414Y200000D01*
X449262Y199137D01*
X448891Y198581D01*
X448676Y197500D01*
X448891Y196419D01*
X449262Y195864D01*
X449414Y195000D01*
X449262Y194137D01*
X448891Y193581D01*
X448676Y192500D01*
X448891Y191419D01*
X449262Y190864D01*
X449414Y190000D01*
X449262Y189137D01*
X448891Y188581D01*
X448676Y187500D01*
X448891Y186420D01*
X449503Y185503D01*
X450419Y184891D01*
X451500Y184676D01*
X463662D01*
X472980Y175358D01*
Y107180D01*
X473177Y106189D01*
X473739Y105349D01*
X489060Y90027D01*
Y66362D01*
X487976Y66071D01*
X485805Y64818D01*
X484032Y63045D01*
X482779Y60874D01*
X482130Y58453D01*
Y55946D01*
X482779Y53525D01*
X484032Y51354D01*
X485805Y49582D01*
X487976Y48329D01*
X490397Y47680D01*
X492903D01*
X495325Y48329D01*
X497495Y49582D01*
X498580Y50667D01*
X499850Y50141D01*
Y46410D01*
X500047Y45419D01*
X500609Y44578D01*
X508740Y36447D01*
X508179Y35474D01*
X507530Y33053D01*
Y30546D01*
X508179Y28125D01*
X509432Y25954D01*
X511205Y24182D01*
X513376Y22929D01*
X515797Y22280D01*
X518303D01*
X520725Y22929D01*
X522895Y24182D01*
X524668Y25954D01*
X525921Y28125D01*
X526570Y30546D01*
Y33053D01*
X525921Y35474D01*
X524668Y37645D01*
X522895Y39418D01*
X520725Y40671D01*
X518303Y41320D01*
X515797D01*
X513376Y40671D01*
X512403Y40110D01*
X505030Y47483D01*
Y83910D01*
X506203Y84396D01*
X514460Y76139D01*
Y66362D01*
X513376Y66071D01*
X511205Y64818D01*
X509432Y63045D01*
X508179Y60874D01*
X507530Y58453D01*
Y55946D01*
X508179Y53525D01*
X509432Y51354D01*
X511205Y49582D01*
X513376Y48329D01*
X515797Y47680D01*
X518303D01*
X520725Y48329D01*
X522895Y49582D01*
X524668Y51354D01*
X525921Y53525D01*
X526570Y55946D01*
Y58453D01*
X525921Y60874D01*
X524668Y63045D01*
X522895Y64818D01*
X520725Y66071D01*
X519640Y66362D01*
Y74688D01*
X520813Y75174D01*
X534140Y61847D01*
X533579Y60874D01*
X532930Y58453D01*
Y55946D01*
X533579Y53525D01*
X534832Y51354D01*
X536605Y49582D01*
X538775Y48329D01*
X541197Y47680D01*
X543703D01*
X546125Y48329D01*
X548295Y49582D01*
X550068Y51354D01*
X551321Y53525D01*
X551970Y55946D01*
Y58453D01*
X551321Y60874D01*
X550068Y63045D01*
X548295Y64818D01*
X546125Y66071D01*
X543703Y66720D01*
X541197D01*
X538775Y66071D01*
X537803Y65510D01*
X489590Y113722D01*
Y181490D01*
X489393Y182481D01*
X488831Y183321D01*
X467909Y204243D01*
X467327Y204633D01*
X467056Y204916D01*
X466916Y206130D01*
X467109Y206419D01*
X467324Y207500D01*
X467109Y208581D01*
X466738Y209137D01*
X466586Y210000D01*
X466738Y210864D01*
X467109Y211419D01*
X467324Y212500D01*
X467109Y213581D01*
X466738Y214137D01*
X466586Y215000D01*
X466738Y215864D01*
X467109Y216419D01*
X467324Y217500D01*
X467109Y218581D01*
X466738Y219137D01*
X466586Y220000D01*
X466738Y220864D01*
X467109Y221419D01*
X467324Y222500D01*
X467109Y223581D01*
X466497Y224497D01*
Y225503D01*
X467109Y226419D01*
X467324Y227500D01*
X467109Y228581D01*
X466738Y229137D01*
X466586Y230000D01*
X466738Y230864D01*
X467109Y231419D01*
X467324Y232500D01*
X467109Y233581D01*
X466738Y234137D01*
X466586Y235000D01*
X466738Y235863D01*
X467109Y236419D01*
X467324Y237500D01*
X467109Y238581D01*
X466738Y239137D01*
X466586Y240000D01*
X466738Y240864D01*
X467109Y241419D01*
X467324Y242500D01*
X467109Y243581D01*
X466738Y244137D01*
X466586Y245000D01*
X466738Y245863D01*
X467109Y246419D01*
X467324Y247500D01*
X467109Y248581D01*
X466738Y249136D01*
X466586Y250000D01*
X466738Y250864D01*
X467109Y251419D01*
X467324Y252500D01*
X467109Y253581D01*
X466738Y254137D01*
X467413Y254587D01*
X468306Y255924D01*
X468367Y256230D01*
X458000D01*
X447530D01*
X446841Y255090D01*
X438573D01*
X436144Y257518D01*
X436601Y258309D01*
X437120Y260247D01*
Y262253D01*
X436601Y264191D01*
X435597Y265929D01*
X434179Y267348D01*
X432441Y268351D01*
X430503Y268870D01*
D02*
G37*
G36*
X620520Y221770D02*
X595980D01*
Y195130D01*
X594197Y193348D01*
X575801D01*
Y198301D01*
X558699D01*
Y193348D01*
X544581D01*
Y199831D01*
X527420D01*
Y194860D01*
X523553D01*
X516343Y202070D01*
X516481Y202309D01*
X517000Y204247D01*
Y206253D01*
X516481Y208191D01*
X515477Y209929D01*
X514059Y211348D01*
X512321Y212351D01*
X510383Y212870D01*
X508377D01*
X506439Y212351D01*
X504701Y211348D01*
X503283Y209929D01*
X502279Y208191D01*
X501760Y206253D01*
Y204247D01*
X502279Y202309D01*
X503283Y200571D01*
X504701Y199153D01*
X506439Y198149D01*
X508377Y197630D01*
X510383D01*
X512321Y198149D01*
X512712Y198375D01*
X520649Y190439D01*
X521489Y189877D01*
X522480Y189680D01*
X527420D01*
Y184709D01*
X544581D01*
Y188168D01*
X558699D01*
X558699Y183215D01*
X557495Y183055D01*
X557429D01*
Y175512D01*
X567250D01*
X577071D01*
Y183055D01*
X577005D01*
X575801Y183215D01*
X575801Y184326D01*
Y188168D01*
X595270D01*
X596261Y188365D01*
X597101Y188927D01*
X599405Y191230D01*
X620520D01*
Y221770D01*
D02*
G37*
G36*
X577071Y172972D02*
X568520D01*
Y165429D01*
X577071D01*
Y172972D01*
D02*
G37*
G36*
X565980D02*
X557429D01*
Y165429D01*
X565980D01*
Y172972D01*
D02*
G37*
G36*
X621790Y175040D02*
X609520D01*
Y159770D01*
X621790D01*
Y175040D01*
D02*
G37*
G36*
X606980D02*
X594710D01*
Y159770D01*
X606980D01*
Y175040D01*
D02*
G37*
G36*
X544581Y180291D02*
X527420D01*
Y172495D01*
X512952Y158027D01*
X512321Y158391D01*
X510383Y158910D01*
X508377D01*
X506439Y158391D01*
X504701Y157388D01*
X503283Y155969D01*
X502279Y154231D01*
X501760Y152293D01*
Y150287D01*
X502279Y148349D01*
X503283Y146611D01*
X504701Y145192D01*
X506439Y144189D01*
X508377Y143670D01*
X510383D01*
X512321Y144189D01*
X514059Y145192D01*
X515334Y146467D01*
X515522Y146505D01*
X517202Y147627D01*
X534744Y165170D01*
X544581D01*
Y180291D01*
D02*
G37*
G36*
X621790Y157230D02*
X609520D01*
Y141960D01*
X621790D01*
Y157230D01*
D02*
G37*
G36*
X606980D02*
X594710D01*
Y141960D01*
X606980D01*
Y157230D01*
D02*
G37*
G36*
X68590Y148680D02*
X58870D01*
Y138960D01*
X59047D01*
X61842Y139709D01*
X64348Y141156D01*
X66394Y143202D01*
X67841Y145708D01*
X68590Y148503D01*
Y148680D01*
D02*
G37*
G36*
X56330D02*
X46610D01*
Y148503D01*
X47359Y145708D01*
X48806Y143202D01*
X50852Y141156D01*
X53358Y139709D01*
X56153Y138960D01*
X56330D01*
Y148680D01*
D02*
G37*
G36*
X433770Y177366D02*
Y167000D01*
Y156633D01*
X433925Y156664D01*
X434364Y156540D01*
X435195Y156096D01*
Y150840D01*
X435491Y149353D01*
X436333Y148093D01*
X445617Y138809D01*
X445380Y137923D01*
Y135917D01*
X445899Y133979D01*
X446903Y132241D01*
X448321Y130822D01*
X450059Y129819D01*
X451997Y129300D01*
X454003D01*
X455941Y129819D01*
X457679Y130822D01*
X459098Y132241D01*
X460101Y133979D01*
X460620Y135917D01*
Y137923D01*
X460101Y139861D01*
X459098Y141599D01*
X457679Y143018D01*
X455941Y144021D01*
X454003Y144540D01*
X451997D01*
X451111Y144303D01*
X442965Y152449D01*
Y167000D01*
X442669Y168486D01*
X441827Y169747D01*
X440567Y170589D01*
X440324Y170637D01*
Y173500D01*
X440109Y174581D01*
X439497Y175497D01*
X438581Y176109D01*
X437500Y176324D01*
X436419Y176109D01*
X435863Y175738D01*
X435413Y176413D01*
X434076Y177306D01*
X433770Y177366D01*
D02*
G37*
G36*
X569103Y66720D02*
X566597D01*
X564175Y66071D01*
X562005Y64818D01*
X560232Y63045D01*
X558979Y60874D01*
X558330Y58453D01*
Y55946D01*
X558979Y53525D01*
X560232Y51354D01*
X562005Y49582D01*
X564175Y48329D01*
X566597Y47680D01*
X569103D01*
X571525Y48329D01*
X573695Y49582D01*
X575468Y51354D01*
X576721Y53525D01*
X577370Y55946D01*
Y58453D01*
X576721Y60874D01*
X575468Y63045D01*
X573695Y64818D01*
X571525Y66071D01*
X569103Y66720D01*
D02*
G37*
G36*
X27220Y47540D02*
X26270D01*
Y26270D01*
X47540D01*
Y27220D01*
X46674Y31575D01*
X44975Y35677D01*
X42508Y39369D01*
X39369Y42508D01*
X35677Y44975D01*
X31575Y46674D01*
X27220Y47540D01*
D02*
G37*
G36*
X623730Y47540D02*
X622780D01*
X618425Y46674D01*
X614323Y44975D01*
X610632Y42508D01*
X607492Y39368D01*
X605025Y35677D01*
X603326Y31575D01*
X602460Y27220D01*
Y26270D01*
X623730D01*
Y47540D01*
D02*
G37*
G36*
X569103Y41320D02*
X566597D01*
X564175Y40671D01*
X562005Y39418D01*
X560232Y37645D01*
X558979Y35474D01*
X558330Y33053D01*
Y30546D01*
X558979Y28125D01*
X560232Y25954D01*
X562005Y24182D01*
X564175Y22929D01*
X566597Y22280D01*
X569103D01*
X571525Y22929D01*
X573695Y24182D01*
X575468Y25954D01*
X576721Y28125D01*
X577370Y30546D01*
Y33053D01*
X576721Y35474D01*
X575468Y37645D01*
X573695Y39418D01*
X571525Y40671D01*
X569103Y41320D01*
D02*
G37*
G36*
X543703D02*
X541197D01*
X538775Y40671D01*
X536605Y39418D01*
X534832Y37645D01*
X533579Y35474D01*
X532930Y33053D01*
Y30546D01*
X533579Y28125D01*
X534832Y25954D01*
X536605Y24182D01*
X538775Y22929D01*
X541197Y22280D01*
X543703D01*
X546125Y22929D01*
X548295Y24182D01*
X550068Y25954D01*
X551321Y28125D01*
X551970Y30546D01*
Y33053D01*
X551321Y35474D01*
X550068Y37645D01*
X548295Y39418D01*
X546125Y40671D01*
X543703Y41320D01*
D02*
G37*
%LPD*%
G36*
X225720Y336660D02*
X237039D01*
Y329552D01*
X246860D01*
X256681D01*
Y336660D01*
X268039D01*
Y329552D01*
X277860D01*
Y328282D01*
X279130D01*
Y319469D01*
X287681D01*
Y323103D01*
X295290D01*
Y292560D01*
X301480Y286370D01*
X302429D01*
Y279762D01*
X312250D01*
Y277222D01*
X302429D01*
Y269986D01*
X301663Y268726D01*
X279350Y269020D01*
X216536Y269020D01*
X173802Y314190D01*
X135810D01*
X129380Y320620D01*
X129416Y330564D01*
X135946Y337015D01*
X165080Y336768D01*
X177820Y349400D01*
X212980D01*
X225720Y336660D01*
D02*
G37*
G36*
X51208Y310660D02*
X97979Y310660D01*
Y307752D01*
X107800D01*
X117621D01*
Y310660D01*
X151706Y310660D01*
X151706Y310660D01*
X151706Y310660D01*
X151706D01*
X152875Y310563D01*
X153678Y310409D01*
X154913Y309915D01*
X156033Y309196D01*
X156997Y308279D01*
X157770Y307196D01*
X158324Y305987D01*
X158498Y305275D01*
X158672Y304030D01*
D01*
X158635Y302802D01*
X158635Y302776D01*
X158592Y300345D01*
Y297887D01*
X158635Y295430D01*
X158672Y294202D01*
X158672Y294202D01*
X158715Y293444D01*
X158483Y291943D01*
X157942Y290524D01*
X157116Y289250D01*
X156042Y288176D01*
X154768Y287350D01*
X153349Y286809D01*
X151848Y286577D01*
X151090Y286620D01*
X129650Y286619D01*
X128794Y286665D01*
X127093Y286487D01*
X125465Y285959D01*
X123984Y285104D01*
X122712Y283960D01*
X121706Y282576D01*
X121010Y281013D01*
X120654Y279340D01*
X120610Y278484D01*
X120610Y235384D01*
X119561Y234851D01*
X119340Y234850D01*
X112000D01*
Y225000D01*
Y215149D01*
X119339D01*
X120610Y214615D01*
X120609Y170927D01*
Y160412D01*
X119466Y158431D01*
X119314Y157865D01*
X117850D01*
Y161600D01*
X109270D01*
Y152770D01*
Y143939D01*
X117850D01*
Y150096D01*
X119550D01*
X120609Y148947D01*
Y142250D01*
X98138D01*
X96486Y142250D01*
X93248Y142910D01*
X90207Y144204D01*
X87486Y146079D01*
X86340Y147270D01*
X75545Y158485D01*
X75545Y158485D01*
X75540Y158485D01*
X74645Y159329D01*
X72615Y160730D01*
X70346Y161696D01*
X67930Y162189D01*
X66697Y162250D01*
X45750Y162250D01*
X44540Y162250D01*
X42173Y162720D01*
X39944Y163644D01*
X37938Y164984D01*
X36232Y166691D01*
X34892Y168697D01*
X33969Y170927D01*
X33500Y173293D01*
X33500Y174500D01*
X33500Y293089D01*
X33500Y294285D01*
X33500Y294285D01*
X33500Y294285D01*
X33500Y295984D01*
X34195Y299310D01*
X35556Y302423D01*
X37526Y305192D01*
X40021Y307498D01*
X42935Y309246D01*
X46145Y310360D01*
X49515Y310793D01*
X51208Y310660D01*
D02*
G37*
G36*
X215537Y268075D02*
X215556Y268067D01*
X215564Y268048D01*
X216033Y267853D01*
X216498Y267646D01*
X216517Y267653D01*
X216536Y267645D01*
X279342Y267645D01*
X301645Y267352D01*
X301812Y267418D01*
X301989Y267391D01*
X302284Y267606D01*
X302623Y267741D01*
X302693Y267906D01*
X302838Y268012D01*
X303604Y269272D01*
X303661Y269641D01*
X303803Y269986D01*
Y270949D01*
X311799D01*
X321792Y260956D01*
X323052Y260114D01*
X324539Y259818D01*
X332190D01*
X332890Y258582D01*
X332884Y258549D01*
X332676Y257500D01*
X332891Y256419D01*
X333262Y255863D01*
X333414Y255000D01*
X333262Y254137D01*
X332891Y253581D01*
X332676Y252500D01*
X332891Y251419D01*
X332930Y251360D01*
X332251Y250090D01*
X310333D01*
X309342Y249893D01*
X308502Y249331D01*
X287510Y228340D01*
X266080D01*
Y234331D01*
X250959D01*
Y217169D01*
X266080D01*
Y223160D01*
X288583D01*
X289574Y223357D01*
X290414Y223919D01*
X311406Y244910D01*
X332252D01*
X332930Y243640D01*
X332891Y243581D01*
X332676Y242500D01*
X332891Y241419D01*
X333262Y240864D01*
X333414Y240000D01*
X333262Y239137D01*
X332891Y238581D01*
X332676Y237500D01*
X332891Y236419D01*
X333262Y235863D01*
X333414Y235000D01*
X333262Y234137D01*
X332891Y233581D01*
X332676Y232500D01*
X332891Y231419D01*
X332930Y231360D01*
X332251Y230090D01*
X327612D01*
X326621Y229893D01*
X325781Y229331D01*
X286859Y190409D01*
X286297Y189569D01*
X286100Y188578D01*
Y166536D01*
X284830Y166196D01*
X284447Y166859D01*
X283029Y168277D01*
X281291Y169281D01*
X279353Y169800D01*
X277347D01*
X275409Y169281D01*
X273671Y168277D01*
X272253Y166859D01*
X271249Y165121D01*
X271155Y164770D01*
X262251D01*
Y169561D01*
X245089D01*
Y158102D01*
X232577Y145590D01*
X220458D01*
X220174Y145946D01*
X219609Y147067D01*
X220355Y148183D01*
X220617Y149500D01*
X220355Y150816D01*
X219609Y151932D01*
X219529Y151986D01*
Y153514D01*
X219609Y153568D01*
X220355Y154684D01*
X220617Y156000D01*
X220355Y157317D01*
X220265Y157451D01*
X220525Y159152D01*
X221551Y160688D01*
X221659Y161230D01*
X209504D01*
X197348D01*
X197456Y160688D01*
X198482Y159152D01*
X198742Y157451D01*
X198652Y157317D01*
X198391Y156000D01*
X198652Y154684D01*
X199398Y153568D01*
X199479Y153514D01*
Y151986D01*
X199398Y151932D01*
X198652Y150816D01*
X198391Y149500D01*
X198652Y148183D01*
X199398Y147067D01*
X199478Y147014D01*
Y145486D01*
X199398Y145432D01*
X198652Y144316D01*
X198391Y143000D01*
X198652Y141684D01*
X199398Y140568D01*
X199478Y140514D01*
Y138986D01*
X199398Y138933D01*
X198652Y137816D01*
X198391Y136500D01*
X198652Y135184D01*
X199398Y134068D01*
X199478Y134014D01*
Y132486D01*
X199398Y132433D01*
X198652Y131317D01*
X198485Y130476D01*
X197234Y129977D01*
X197189Y129976D01*
X192885Y134280D01*
Y147250D01*
X192589Y148737D01*
X191747Y149997D01*
X176497Y165247D01*
X175237Y166089D01*
X173750Y166385D01*
X151996D01*
X150510Y166089D01*
X150286Y165940D01*
X144323D01*
X143006Y165678D01*
X141890Y164932D01*
X141145Y163817D01*
X140883Y162500D01*
X141145Y161184D01*
X141890Y160068D01*
X141971Y160014D01*
Y158486D01*
X141890Y158433D01*
X141145Y157317D01*
X140883Y156000D01*
X141145Y154684D01*
X141890Y153568D01*
X141971Y153514D01*
Y151986D01*
X141890Y151932D01*
X141145Y150816D01*
X140883Y149500D01*
X141145Y148183D01*
X141890Y147067D01*
X141326Y145946D01*
X141042Y145590D01*
X132750D01*
X131759Y145393D01*
X130919Y144831D01*
X121907Y135820D01*
X116580D01*
X116580Y140791D01*
X117815Y140875D01*
X120609D01*
X121581Y141278D01*
X121984Y142250D01*
Y147528D01*
X123254Y148207D01*
X123566Y147999D01*
X126043Y147506D01*
X126177Y147533D01*
X126747Y147380D01*
X128753D01*
X130691Y147899D01*
X132429Y148903D01*
X133848Y150321D01*
X134851Y152059D01*
X135370Y153997D01*
Y156003D01*
X134851Y157941D01*
X133848Y159679D01*
X132429Y161098D01*
X130691Y162101D01*
X128753Y162620D01*
X126747D01*
X124809Y162101D01*
X123254Y161203D01*
X122579Y161418D01*
X121984Y161806D01*
Y170927D01*
X121984Y214615D01*
X121881Y214865D01*
X121882Y215135D01*
X121687Y215331D01*
X121581Y215587D01*
X121332Y215691D01*
X121142Y215882D01*
X119872Y216416D01*
X119595Y216418D01*
X119339Y216524D01*
X118291D01*
Y232865D01*
X119340Y233476D01*
X119561Y233476D01*
X119860Y233600D01*
X120184Y233625D01*
X121233Y234159D01*
X121377Y234328D01*
X121581Y234412D01*
X121706Y234712D01*
X121917Y234959D01*
X121899Y235180D01*
X121984Y235384D01*
X121984Y278448D01*
X122022Y279160D01*
X122325Y280586D01*
X122903Y281884D01*
X123739Y283034D01*
X124796Y283985D01*
X126027Y284696D01*
X127380Y285135D01*
X128830Y285286D01*
X129577Y285247D01*
X129614Y285260D01*
X129650Y285245D01*
X151051Y285245D01*
X151770Y285204D01*
X151912Y285254D01*
X152058Y285218D01*
X153559Y285451D01*
X153688Y285529D01*
X153839Y285525D01*
X155258Y286066D01*
X155367Y286169D01*
X155515Y286197D01*
X156790Y287022D01*
X156875Y287146D01*
X157014Y287204D01*
X158088Y288278D01*
X158146Y288417D01*
X158270Y288503D01*
X159096Y289777D01*
X159123Y289925D01*
X159226Y290035D01*
X159767Y291454D01*
X159763Y291604D01*
X159841Y291733D01*
X160074Y293234D01*
X160038Y293380D01*
X160088Y293522D01*
X160046Y294262D01*
X160009Y295463D01*
X159967Y297900D01*
Y300333D01*
X160009Y302752D01*
X160009Y302752D01*
X160009Y302753D01*
X160009Y302771D01*
X160046Y303988D01*
X160038Y304009D01*
X160047Y304030D01*
X160008Y304123D01*
X160034Y304221D01*
X159859Y305466D01*
X159822Y305529D01*
X159833Y305602D01*
X159659Y306313D01*
X159579Y306423D01*
X159573Y306560D01*
X159019Y307769D01*
X158919Y307862D01*
X158888Y307995D01*
X158115Y309078D01*
X158000Y309150D01*
X157944Y309275D01*
X156980Y310192D01*
X156853Y310241D01*
X156775Y310354D01*
X155655Y311072D01*
X155633Y311076D01*
X154973Y311545D01*
X155378Y312815D01*
X173210D01*
X215537Y268075D01*
D02*
G37*
%LPC*%
G36*
X208609Y343499D02*
X206270D01*
Y326270D01*
X215621D01*
Y336488D01*
X215382Y338302D01*
X214681Y339993D01*
X213567Y341446D01*
X212115Y342560D01*
X210424Y343260D01*
X208609Y343499D01*
D02*
G37*
G36*
X203730D02*
X201390D01*
X199576Y343260D01*
X197885Y342560D01*
X196433Y341446D01*
X195318Y339993D01*
X194618Y338302D01*
X194379Y336488D01*
Y326270D01*
X203730D01*
Y343499D01*
D02*
G37*
G36*
X148622Y331999D02*
X146270D01*
Y326270D01*
X155453D01*
X155382Y326812D01*
X154683Y328500D01*
X153571Y329949D01*
X152121Y331061D01*
X150433Y331760D01*
X148622Y331999D01*
D02*
G37*
G36*
X143730D02*
X141378D01*
X139567Y331760D01*
X137879Y331061D01*
X136429Y329949D01*
X135317Y328500D01*
X134618Y326812D01*
X134546Y326270D01*
X143730D01*
Y331999D01*
D02*
G37*
G36*
X276590Y327012D02*
X268039D01*
Y319469D01*
X276590D01*
Y327012D01*
D02*
G37*
G36*
X256681Y327012D02*
X248130D01*
Y319469D01*
X256681D01*
Y327012D01*
D02*
G37*
G36*
X245590D02*
X237039D01*
Y319469D01*
X245590D01*
Y327012D01*
D02*
G37*
G36*
X155453Y323730D02*
X146270D01*
Y318001D01*
X148622D01*
X150433Y318240D01*
X152121Y318939D01*
X153571Y320051D01*
X154683Y321501D01*
X155382Y323189D01*
X155453Y323730D01*
D02*
G37*
G36*
X143730D02*
X134546D01*
X134618Y323189D01*
X135317Y321501D01*
X136429Y320051D01*
X137879Y318939D01*
X139567Y318240D01*
X141378Y318001D01*
X143730D01*
Y323730D01*
D02*
G37*
G36*
X215621D02*
X206270D01*
Y306501D01*
X208609D01*
X210424Y306740D01*
X212115Y307440D01*
X213567Y308555D01*
X214681Y310007D01*
X215382Y311698D01*
X215621Y313512D01*
Y323730D01*
D02*
G37*
G36*
X203730D02*
X194379D01*
Y313512D01*
X194618Y311698D01*
X195318Y310007D01*
X196433Y308555D01*
X197885Y307440D01*
X199576Y306740D01*
X201390Y306501D01*
X203730D01*
Y323730D01*
D02*
G37*
G36*
X274470Y295333D02*
Y287740D01*
X282063D01*
X281484Y289901D01*
X280314Y291929D01*
X278659Y293584D01*
X276631Y294754D01*
X274470Y295333D01*
D02*
G37*
G36*
X271930D02*
X269769Y294754D01*
X267741Y293584D01*
X266086Y291929D01*
X264916Y289901D01*
X264337Y287740D01*
X271930D01*
Y295333D01*
D02*
G37*
G36*
X282063Y285200D02*
X274470D01*
Y277607D01*
X276631Y278186D01*
X278659Y279356D01*
X280314Y281011D01*
X281484Y283039D01*
X282063Y285200D01*
D02*
G37*
G36*
X271930D02*
X264337D01*
X264916Y283039D01*
X266086Y281011D01*
X267741Y279356D01*
X269769Y278186D01*
X271930Y277607D01*
Y285200D01*
D02*
G37*
G36*
X148622Y308999D02*
X146270D01*
Y303270D01*
X155453D01*
X155382Y303811D01*
X154683Y305499D01*
X153571Y306949D01*
X152121Y308061D01*
X150433Y308760D01*
X148622Y308999D01*
D02*
G37*
G36*
X143730D02*
X141378D01*
X139567Y308760D01*
X137879Y308061D01*
X136429Y306949D01*
X135317Y305499D01*
X134618Y303811D01*
X134546Y303270D01*
X143730D01*
Y308999D01*
D02*
G37*
G36*
X117621Y305212D02*
X109070D01*
Y297669D01*
X117621D01*
Y305212D01*
D02*
G37*
G36*
X106530D02*
X97979D01*
Y297669D01*
X106530D01*
Y305212D01*
D02*
G37*
G36*
X155453Y300730D02*
X146270D01*
Y295001D01*
X148622D01*
X150433Y295240D01*
X152121Y295939D01*
X153571Y297051D01*
X154683Y298500D01*
X155382Y300189D01*
X155453Y300730D01*
D02*
G37*
G36*
X143730D02*
X134546D01*
X134618Y300189D01*
X135317Y298500D01*
X136429Y297051D01*
X137879Y295939D01*
X139567Y295240D01*
X141378Y295001D01*
X143730D01*
Y300730D01*
D02*
G37*
G36*
X51520Y297640D02*
X51270D01*
Y287370D01*
X61540D01*
Y287619D01*
X60754Y290554D01*
X59235Y293186D01*
X57086Y295334D01*
X54455Y296854D01*
X51520Y297640D01*
D02*
G37*
G36*
X48730D02*
X48481D01*
X45546Y296854D01*
X42915Y295334D01*
X40766Y293186D01*
X39247Y290554D01*
X38460Y287619D01*
Y287370D01*
X48730D01*
Y297640D01*
D02*
G37*
G36*
X61540Y284830D02*
X51270D01*
Y274560D01*
X51520D01*
X54455Y275347D01*
X57086Y276866D01*
X59235Y279014D01*
X60754Y281646D01*
X61540Y284581D01*
Y284830D01*
D02*
G37*
G36*
X48730D02*
X38460D01*
Y284581D01*
X39247Y281646D01*
X40766Y279014D01*
X42915Y276866D01*
X45546Y275347D01*
X48481Y274560D01*
X48730D01*
Y284830D01*
D02*
G37*
G36*
X109460Y234850D02*
X101899D01*
Y226270D01*
X109460D01*
Y234850D01*
D02*
G37*
G36*
Y223730D02*
X101899D01*
Y215149D01*
X109460D01*
Y223730D01*
D02*
G37*
G36*
X68590Y186340D02*
X58870D01*
Y176620D01*
X68590D01*
Y186340D01*
D02*
G37*
G36*
X56330D02*
X46610D01*
Y176620D01*
X56330D01*
Y186340D01*
D02*
G37*
G36*
X68590Y174080D02*
X58870D01*
Y164360D01*
X68590D01*
Y174080D01*
D02*
G37*
G36*
X56330D02*
X46610D01*
Y164360D01*
X56330D01*
Y174080D01*
D02*
G37*
G36*
X106730Y161600D02*
X98149D01*
Y154040D01*
X106730D01*
Y161600D01*
D02*
G37*
G36*
Y151500D02*
X98149D01*
Y143939D01*
X106730D01*
Y151500D01*
D02*
G37*
G36*
X167790Y238290D02*
X162520D01*
Y233020D01*
X167790D01*
Y238290D01*
D02*
G37*
G36*
X159980D02*
X154710D01*
Y233020D01*
X159980D01*
Y238290D01*
D02*
G37*
G36*
X211540Y238040D02*
X206270D01*
Y232770D01*
X211540D01*
Y238040D01*
D02*
G37*
G36*
X203730D02*
X198460D01*
Y232770D01*
X203730D01*
Y238040D01*
D02*
G37*
G36*
X167790Y230480D02*
X162520D01*
Y225210D01*
X167790D01*
Y230480D01*
D02*
G37*
G36*
X159980D02*
X154710D01*
Y225210D01*
X159980D01*
Y230480D01*
D02*
G37*
G36*
X211540Y230230D02*
X206270D01*
Y224960D01*
X211540D01*
Y230230D01*
D02*
G37*
G36*
X203730D02*
X198460D01*
Y224960D01*
X203730D01*
Y230230D01*
D02*
G37*
G36*
X246541Y234331D02*
X231419D01*
Y220832D01*
X228677Y218090D01*
X210270D01*
Y220770D01*
X199730D01*
Y210230D01*
X210270D01*
Y212910D01*
X229750D01*
X230741Y213107D01*
X231581Y213669D01*
X235082Y217169D01*
X246541D01*
Y234331D01*
D02*
G37*
G36*
X137831Y233580D02*
X122709D01*
Y216419D01*
X135041D01*
X135225Y216382D01*
X137689Y213919D01*
X138529Y213358D01*
X139520Y213160D01*
X155980D01*
Y210480D01*
X166520D01*
Y221020D01*
X155980D01*
Y218340D01*
X140592D01*
X138142Y220790D01*
X137831Y220998D01*
Y233580D01*
D02*
G37*
G36*
X183190Y214863D02*
Y207270D01*
X190783D01*
X190204Y209431D01*
X189034Y211459D01*
X187379Y213114D01*
X185351Y214284D01*
X183190Y214863D01*
D02*
G37*
G36*
X180650D02*
X178489Y214284D01*
X176461Y213114D01*
X174806Y211459D01*
X173636Y209431D01*
X173057Y207270D01*
X180650D01*
Y214863D01*
D02*
G37*
G36*
X190783Y204730D02*
X183190D01*
Y197137D01*
X185351Y197716D01*
X187379Y198886D01*
X189034Y200541D01*
X190204Y202569D01*
X190783Y204730D01*
D02*
G37*
G36*
X180650D02*
X173057D01*
X173636Y202569D01*
X174806Y200541D01*
X176461Y198886D01*
X178489Y197716D01*
X180650Y197137D01*
Y204730D01*
D02*
G37*
G36*
X253113Y207410D02*
X251107D01*
X249169Y206891D01*
X247431Y205888D01*
X246012Y204469D01*
X245009Y202731D01*
X244490Y200793D01*
Y198787D01*
X245009Y196849D01*
X246012Y195111D01*
X247431Y193692D01*
X247710Y193531D01*
Y189101D01*
X245089D01*
Y173979D01*
X262251D01*
Y189101D01*
X258069D01*
Y194973D01*
X258207Y195111D01*
X259211Y196849D01*
X259730Y198787D01*
Y200793D01*
X259211Y202731D01*
X258207Y204469D01*
X256789Y205888D01*
X255051Y206891D01*
X253113Y207410D01*
D02*
G37*
G36*
X217177Y167235D02*
X210774D01*
Y163770D01*
X221659D01*
X221551Y164312D01*
X220525Y165848D01*
X218989Y166874D01*
X217177Y167235D01*
D02*
G37*
G36*
X208234D02*
X201830D01*
X200018Y166874D01*
X198482Y165848D01*
X197456Y164312D01*
X197348Y163770D01*
X208234D01*
Y167235D01*
D02*
G37*
%LPD*%
D14*
X254200Y130970D02*
X254690D01*
X259711Y136481D02*
X263040Y139810D01*
X278350D01*
X254690Y130970D02*
X259711Y135991D01*
Y136481D01*
X252385Y129155D02*
X254200Y130970D01*
X130270Y223980D02*
Y225000D01*
X135291Y218959D02*
X136311D01*
X139520Y215750D02*
X161250D01*
X130270Y223980D02*
X135291Y218959D01*
X136311D02*
X139520Y215750D01*
X253850Y162180D02*
X278680D01*
X253670Y162000D02*
X253850Y162180D01*
X233650Y143000D02*
X252650Y162000D01*
X209504Y143000D02*
X233650D01*
X252650Y162000D02*
X253670D01*
X288690Y112760D02*
Y188578D01*
X327612Y227500D01*
X235650Y59720D02*
X288690Y112760D01*
X218474Y129155D02*
X252385D01*
X209504Y130000D02*
X217628D01*
X218474Y129155D01*
X426750Y222250D02*
X437000Y232500D01*
X304230Y106747D02*
Y173230D01*
X300420Y108326D02*
Y183170D01*
X299790Y96919D02*
X308040Y105169D01*
X296500Y109794D02*
Y185250D01*
X308040Y105169D02*
Y170690D01*
X273000Y43750D02*
Y80906D01*
X286450Y57200D02*
Y88967D01*
X261050Y74344D02*
X296500Y109794D01*
X261050Y57200D02*
Y74344D01*
X299790Y48540D02*
Y96919D01*
X248990Y49990D02*
Y67672D01*
X286450Y88967D02*
X304230Y106747D01*
X235650Y57200D02*
Y59720D01*
X248990Y67672D02*
X292500Y111182D01*
X273000Y80906D02*
X300420Y108326D01*
X292500Y111182D02*
Y187000D01*
X209504Y143000D02*
X209823Y142681D01*
X359838Y232412D02*
X387500Y204750D01*
X430000D01*
X509380Y246500D02*
X510214Y247334D01*
X517834D02*
X539480Y268980D01*
X510214Y247334D02*
X517834D01*
X509500Y205250D02*
X522480Y192270D01*
X509380Y205250D02*
X509500D01*
X377500Y160375D02*
X378130Y159745D01*
X363650Y99900D02*
X378130Y114380D01*
Y159745D01*
X377500Y160375D02*
Y167000D01*
X362500Y144000D02*
Y167000D01*
X328250Y109750D02*
X362500Y144000D01*
X392500Y110179D02*
X401500Y101179D01*
X392500Y110179D02*
Y167000D01*
X397500Y115000D02*
Y167000D01*
Y115000D02*
X414450Y98050D01*
X402500Y119539D02*
Y167000D01*
Y119539D02*
X427000Y95039D01*
X407500Y122250D02*
Y167000D01*
Y122250D02*
X437750Y92000D01*
X412500Y125500D02*
Y166309D01*
Y125500D02*
X452000Y86000D01*
X417500Y127750D02*
X468500Y76750D01*
X417500Y127750D02*
Y167000D01*
X382500Y111000D02*
Y167000D01*
X387588Y60662D02*
Y166912D01*
X342088Y232412D02*
X359838D01*
X342000Y232500D02*
X342088Y232412D01*
X310333Y247500D02*
X342000D01*
X327612Y227500D02*
X342000D01*
X288583Y225750D02*
X310333Y247500D01*
X328000Y222500D02*
X342000D01*
X330143Y212893D02*
X335567D01*
X292500Y187000D02*
X328000Y222500D01*
X296500Y185250D02*
X328750Y217500D01*
X342000D01*
X300420Y183170D02*
X330143Y212893D01*
X567250Y190758D02*
X595270D01*
X537512D02*
X567250D01*
X522480Y192270D02*
X536000D01*
X537512Y190758D01*
X595270D02*
X598282Y193770D01*
X598520D02*
X609500Y204750D01*
X598282Y193770D02*
X598520D01*
X609500Y204750D02*
Y205500D01*
X382500Y264500D02*
Y283000D01*
Y264500D02*
X393250Y253750D01*
X539480Y268980D02*
Y270000D01*
X559020D02*
Y307500D01*
Y270000D02*
X561520Y267500D01*
X608250D01*
X437000Y232500D02*
X458000D01*
X431162Y237588D02*
X457912D01*
X429500Y239250D02*
X431162Y237588D01*
X258520Y225750D02*
X288583D01*
X229750Y215500D02*
X238980Y224730D01*
Y225750D01*
X205000Y215500D02*
X229750D01*
X132500Y130000D02*
X151996D01*
X57600Y99150D02*
X101650D01*
X132500Y130000D01*
X108000Y133230D02*
X122980D01*
X132750Y143000D02*
X151996D01*
X122980Y133230D02*
X132750Y143000D01*
X106980Y133230D02*
X108000D01*
X457912Y237588D02*
X458000Y237500D01*
X57600Y124550D02*
X98300D01*
X106980Y133230D01*
X437500Y252500D02*
X458000D01*
X428750Y261250D02*
X437500Y252500D01*
X451950Y334700D02*
Y361050D01*
X451750Y334500D02*
X451950Y334700D01*
Y361050D02*
X452150Y361250D01*
X437500Y283000D02*
Y318242D01*
X426750Y328991D02*
X437500Y318242D01*
X426750Y328991D02*
Y361250D01*
X401350Y326691D02*
Y361250D01*
Y326691D02*
X407500Y320541D01*
Y283000D02*
Y320541D01*
X363650Y57200D02*
Y99900D01*
Y31800D02*
X376000Y44150D01*
Y104500D01*
X382500Y111000D01*
X468500Y54950D02*
X491650Y31800D01*
X468500Y54950D02*
Y76750D01*
X475570Y107180D02*
Y176430D01*
X491650Y57200D02*
Y91100D01*
X475570Y107180D02*
X491650Y91100D01*
X479380Y109494D02*
X502440Y86433D01*
X479380Y109494D02*
Y178334D01*
X483190Y111072D02*
X517050Y77212D01*
X483190Y111072D02*
Y179912D01*
X487000Y112650D02*
Y181490D01*
Y112650D02*
X542450Y57200D01*
X517050D02*
Y77212D01*
X502440Y46410D02*
Y86433D01*
X464500Y187500D02*
X475570Y176430D01*
X465302Y192412D02*
X479380Y178334D01*
X465690Y197412D02*
X483190Y179912D01*
X466078Y202412D02*
X487000Y181490D01*
X458088Y202412D02*
X466078D01*
X458000Y202500D02*
X458088Y202412D01*
X458000Y187500D02*
X464500D01*
X458000Y197500D02*
X458088Y197412D01*
X465690D01*
X458000Y192500D02*
X458088Y192412D01*
X465302D01*
X502440Y46410D02*
X517050Y31800D01*
X452000Y43950D02*
Y86000D01*
X439850Y31800D02*
X452000Y43950D01*
X304230Y173230D02*
X328500Y197500D01*
X311850Y57200D02*
Y165350D01*
X333912Y187412D01*
X308040Y170690D02*
X329850Y192500D01*
X288369Y37119D02*
X299790Y48540D01*
X286450Y31800D02*
X288369Y33719D01*
Y37119D01*
X311850Y31800D02*
X328250Y48200D01*
Y109750D01*
X427000Y44350D02*
Y95039D01*
X414450Y31800D02*
X427000Y44350D01*
X389050Y31800D02*
X401500Y44250D01*
Y101179D01*
X437750Y59300D02*
Y92000D01*
X414450Y57200D02*
Y98050D01*
X437750Y59300D02*
X439850Y57200D01*
X389050Y57300D02*
X390000Y58250D01*
X387588Y60662D02*
X390000Y58250D01*
X389050Y57200D02*
Y57300D01*
X387500Y167000D02*
X387588Y166912D01*
X235650Y36650D02*
X248990Y49990D01*
X235650Y31800D02*
Y36650D01*
X261050Y31800D02*
X273000Y43750D01*
X328500Y197500D02*
X342000D01*
X333912Y187412D02*
X341912D01*
X342000Y187500D01*
X329850Y192500D02*
X342000D01*
D16*
X476122Y281400D02*
D03*
X492638D02*
D03*
Y314150D02*
D03*
X476122D02*
D03*
D17*
X108000Y102080D02*
D03*
Y82540D02*
D03*
X253670Y162000D02*
D03*
Y181540D02*
D03*
X253670Y111430D02*
D03*
Y130970D02*
D03*
X108000Y152770D02*
D03*
Y133230D02*
D03*
X536000Y192270D02*
D03*
Y172730D02*
D03*
D18*
X107800Y322998D02*
D03*
Y306482D02*
D03*
X246860Y344798D02*
D03*
Y328282D02*
D03*
X277860Y344798D02*
D03*
Y328282D02*
D03*
X567250Y174242D02*
D03*
Y190758D02*
D03*
X312250Y295008D02*
D03*
Y278492D02*
D03*
D19*
X205000Y325000D02*
D03*
D20*
X145000Y302000D02*
D03*
Y325000D02*
D03*
D21*
Y348000D02*
D03*
D22*
X161250Y231750D02*
D03*
Y215750D02*
D03*
X205000Y215500D02*
D03*
Y231500D02*
D03*
D23*
X238980Y225750D02*
D03*
X258520D02*
D03*
X110730Y225000D02*
D03*
X130270D02*
D03*
X539480Y307500D02*
D03*
X559020D02*
D03*
X539480Y270000D02*
D03*
X559020D02*
D03*
D24*
X608250Y267500D02*
D03*
Y315500D02*
D03*
Y158500D02*
D03*
Y206500D02*
D03*
D25*
X342000Y262500D02*
D03*
Y257500D02*
D03*
Y252500D02*
D03*
Y247500D02*
D03*
Y242500D02*
D03*
Y237500D02*
D03*
Y232500D02*
D03*
Y227500D02*
D03*
Y222500D02*
D03*
Y217500D02*
D03*
Y212500D02*
D03*
Y207500D02*
D03*
Y202500D02*
D03*
Y197500D02*
D03*
Y192500D02*
D03*
Y187500D02*
D03*
X458000Y187500D02*
D03*
Y192500D02*
D03*
Y197500D02*
D03*
Y202500D02*
D03*
Y207500D02*
D03*
Y212500D02*
D03*
Y217500D02*
D03*
Y222500D02*
D03*
Y227500D02*
D03*
Y232500D02*
D03*
Y237500D02*
D03*
Y242500D02*
D03*
Y247500D02*
D03*
Y252500D02*
D03*
Y257500D02*
D03*
Y262500D02*
D03*
D26*
X362500Y167000D02*
D03*
X367500D02*
D03*
X372500D02*
D03*
X377500D02*
D03*
X382500D02*
D03*
X387500D02*
D03*
X392500D02*
D03*
X397500D02*
D03*
X402500D02*
D03*
X407500D02*
D03*
X412500D02*
D03*
X417500D02*
D03*
X422500D02*
D03*
X427500D02*
D03*
X432500D02*
D03*
X437500D02*
D03*
Y283000D02*
D03*
X432500D02*
D03*
X427500D02*
D03*
X422500D02*
D03*
X417500D02*
D03*
X412500D02*
D03*
X407500D02*
D03*
X402500D02*
D03*
X397500D02*
D03*
X392500D02*
D03*
X387500D02*
D03*
X382500D02*
D03*
X377500D02*
D03*
X372500D02*
D03*
X367500D02*
D03*
X362500D02*
D03*
D27*
X151996Y123500D02*
D03*
Y130000D02*
D03*
Y136500D02*
D03*
Y143000D02*
D03*
Y149500D02*
D03*
Y156000D02*
D03*
Y162500D02*
D03*
X209504D02*
D03*
Y156000D02*
D03*
Y149500D02*
D03*
Y143000D02*
D03*
Y136500D02*
D03*
Y130000D02*
D03*
D28*
Y123500D02*
D03*
D39*
X57600Y99150D02*
D03*
Y124550D02*
D03*
Y149950D02*
D03*
D40*
Y175350D02*
D03*
D42*
X252890Y182320D02*
Y199010D01*
Y182320D02*
X253670Y181540D01*
X252110Y199790D02*
X252890Y199010D01*
X513190Y151290D02*
X513540D01*
X534980Y172730D01*
X570660Y377800D02*
X608250Y340210D01*
X494100Y377800D02*
X570660D01*
X608250Y315500D02*
Y340210D01*
X477550Y361250D02*
X494100Y377800D01*
X476836Y360536D02*
X477550Y361250D01*
X273200Y286470D02*
X274575D01*
X301482Y328282D02*
X320940Y347740D01*
X277860Y328282D02*
X301482D01*
X534980Y172730D02*
X536000D01*
X476122Y280392D02*
Y281400D01*
X461180Y265450D02*
X476122Y280392D01*
X458400Y265450D02*
X461180D01*
X476122Y281400D02*
Y314150D01*
X476836Y314864D02*
Y360536D01*
X476122Y314150D02*
X476836Y314864D01*
D43*
X277738Y117420D02*
X279800D01*
X254650Y111430D02*
X271748D01*
X277738Y117420D01*
X253885Y112195D02*
X254650Y111430D01*
X216305Y123500D02*
X227144Y112660D01*
X254440D01*
X198171Y123500D02*
X216305D01*
X115411Y86291D02*
X126940Y97820D01*
Y105450D01*
X108000Y82540D02*
X111751Y86291D01*
X115411D01*
X126940Y105450D02*
X144990Y123500D01*
X165124D01*
X361250Y274750D02*
Y283250D01*
X439080Y150840D02*
Y167000D01*
X324539Y263703D02*
X350203D01*
X364160Y117110D02*
X365388Y118338D01*
Y133958D01*
X372287Y140857D01*
Y158203D01*
X439080Y150840D02*
X453000Y136920D01*
X109211Y153981D02*
X126043D01*
X311250Y276992D02*
X324539Y263703D01*
X350203D02*
X361250Y274750D01*
X173750Y162500D02*
X189000Y147250D01*
Y132671D02*
X198171Y123500D01*
X189000Y132671D02*
Y147250D01*
X151996Y162500D02*
X173750D01*
X171514Y129889D02*
Y140264D01*
X172000Y140750D01*
X165124Y123500D02*
X171514Y129889D01*
D44*
X181920Y206000D02*
X182410D01*
X108000Y152770D02*
X109211Y153981D01*
X126043D02*
X127063Y155000D01*
X127750D01*
D45*
X372500Y167000D02*
Y183210D01*
X353535Y202175D02*
X372500Y183210D01*
X342325Y202175D02*
X353535D01*
D46*
X375950Y361250D02*
D03*
X401350D02*
D03*
X452150D02*
D03*
X426750D02*
D03*
D47*
X477550D02*
D03*
D48*
X50000Y286100D02*
D03*
D49*
Y336900D02*
D03*
D50*
X625000Y400000D02*
D03*
Y25000D02*
D03*
X25000Y25000D02*
D03*
Y400000D02*
D03*
D51*
X389050Y57200D02*
D03*
Y31800D02*
D03*
X363650Y57200D02*
D03*
X414450Y31800D02*
D03*
X439850D02*
D03*
X414450Y57200D02*
D03*
X439850D02*
D03*
X567850D02*
D03*
X542450D02*
D03*
X567850Y31800D02*
D03*
X542450D02*
D03*
X491650Y57200D02*
D03*
X517050Y31800D02*
D03*
Y57200D02*
D03*
X311850D02*
D03*
X286450D02*
D03*
X311850Y31800D02*
D03*
X286450D02*
D03*
X235650Y57200D02*
D03*
X261050Y31800D02*
D03*
Y57200D02*
D03*
D52*
X363650Y31800D02*
D03*
X491650D02*
D03*
X235650D02*
D03*
D53*
X278350Y139810D02*
D03*
Y117420D02*
D03*
Y162180D02*
D03*
X252110Y199790D02*
D03*
X429500Y204750D02*
D03*
X509380Y205250D02*
D03*
X181920Y206000D02*
D03*
X364160Y117110D02*
D03*
X273200Y286470D02*
D03*
X453000Y136920D02*
D03*
X320940Y347740D02*
D03*
X509380Y151290D02*
D03*
Y246500D02*
D03*
X127750Y155000D02*
D03*
X393250Y253750D02*
D03*
X429500Y222000D02*
D03*
Y239250D02*
D03*
X172000Y140750D02*
D03*
X429500Y261250D02*
D03*
X451750Y334500D02*
D03*
M02*
