M48
;Layer_Color=9474304
;FILE_FORMAT=4:4
METRIC,LZ
;TYPE=PLATED
T01F00S00C0.7112
T02F00S00C1.0900
T03F00S00C1.1000
T04F00S00C1.3000
T05F00S00C3.0000
%
T01
X00172Y0014075
X0027835Y0013981
Y0011742
X0036416Y0011711
X00453Y0013692
X0050938Y0015129
Y0020525
Y002465
X004295Y0023925
Y00222
Y0020475
Y0026125
X0039325Y0025375
X0045175Y003345
X0032094Y0034774
X002732Y0028647
X0025211Y0019979
X0027835Y0016218
X0018192Y00206
X0012775Y00155
T02
X000576Y0009915
Y0012455
Y0014995
Y0017535
T03
X0023565Y000318
Y000572
X0026105
X0028645
X0031185
Y000318
X0028645
X0026105
X0036365
X0038905
Y000572
X0036365
X0041445
Y000318
X0043985
Y000572
X0049165
Y000318
X0051705
Y000572
X0054245
X0056785
Y000318
X0054245
X0047755Y0036125
X0045215
X0042675
X0040135
X0037595
T04
X0005Y002861
Y003369
T05
X00025Y00025
X00625Y00025
Y004
X00025Y004
M30
