G04*
G04 #@! TF.GenerationSoftware,Altium Limited,Altium Designer,24.2.2 (26)*
G04*
G04 Layer_Color=8421504*
%FSLAX44Y44*%
%MOMM*%
G71*
G04*
G04 #@! TF.SameCoordinates,0955CF80-6420-4CC4-8797-52894B4AD841*
G04*
G04*
G04 #@! TF.FilePolarity,Positive*
G04*
G01*
G75*
%ADD16R,1.2546X1.4562*%
%ADD17R,1.4621X1.2581*%
%ADD18R,1.4562X1.2546*%
G04:AMPARAMS|DCode=19|XSize=1.6042mm|YSize=3.1798mm|CornerRadius=0.4411mm|HoleSize=0mm|Usage=FLASHONLY|Rotation=0.000|XOffset=0mm|YOffset=0mm|HoleType=Round|Shape=RoundedRectangle|*
%AMROUNDEDRECTD19*
21,1,1.6042,2.2975,0,0,0.0*
21,1,0.7219,3.1798,0,0,0.0*
1,1,0.8823,0.3609,-1.1488*
1,1,0.8823,-0.3609,-1.1488*
1,1,0.8823,-0.3609,1.1488*
1,1,0.8823,0.3609,1.1488*
%
%ADD19ROUNDEDRECTD19*%
G04:AMPARAMS|DCode=20|XSize=1.6042mm|YSize=0.8798mm|CornerRadius=0.4399mm|HoleSize=0mm|Usage=FLASHONLY|Rotation=0.000|XOffset=0mm|YOffset=0mm|HoleType=Round|Shape=RoundedRectangle|*
%AMROUNDEDRECTD20*
21,1,1.6042,0.0000,0,0,0.0*
21,1,0.7244,0.8798,0,0,0.0*
1,1,0.8798,0.3622,0.0000*
1,1,0.8798,-0.3622,0.0000*
1,1,0.8798,-0.3622,0.0000*
1,1,0.8798,0.3622,0.0000*
%
%ADD20ROUNDEDRECTD20*%
%ADD21R,1.6042X0.8798*%
%ADD22R,0.8000X0.8000*%
%ADD23R,1.2581X1.4621*%
%ADD24R,2.2000X2.8000*%
%ADD25O,1.6000X0.3000*%
%ADD26O,0.3000X1.6000*%
G04:AMPARAMS|DCode=27|XSize=1.9554mm|YSize=0.4208mm|CornerRadius=0.2104mm|HoleSize=0mm|Usage=FLASHONLY|Rotation=180.000|XOffset=0mm|YOffset=0mm|HoleType=Round|Shape=RoundedRectangle|*
%AMROUNDEDRECTD27*
21,1,1.9554,0.0000,0,0,180.0*
21,1,1.5347,0.4208,0,0,180.0*
1,1,0.4208,-0.7673,0.0000*
1,1,0.4208,0.7673,0.0000*
1,1,0.4208,0.7673,0.0000*
1,1,0.4208,-0.7673,0.0000*
%
%ADD27ROUNDEDRECTD27*%
%ADD28R,1.9554X0.4208*%
D16*
X476122Y281400D02*
D03*
X492638D02*
D03*
Y314150D02*
D03*
X476122D02*
D03*
D17*
X108000Y102080D02*
D03*
Y82540D02*
D03*
X253670Y162000D02*
D03*
Y181540D02*
D03*
X253670Y111430D02*
D03*
Y130970D02*
D03*
X108000Y152770D02*
D03*
Y133230D02*
D03*
X536000Y192270D02*
D03*
Y172730D02*
D03*
D18*
X107800Y322998D02*
D03*
Y306482D02*
D03*
X246860Y344798D02*
D03*
Y328282D02*
D03*
X277860Y344798D02*
D03*
Y328282D02*
D03*
X567250Y174242D02*
D03*
Y190758D02*
D03*
X312250Y295008D02*
D03*
Y278492D02*
D03*
D19*
X205000Y325000D02*
D03*
D20*
X145000Y302000D02*
D03*
Y325000D02*
D03*
D21*
Y348000D02*
D03*
D22*
X161250Y231750D02*
D03*
Y215750D02*
D03*
X205000Y215500D02*
D03*
Y231500D02*
D03*
D23*
X238980Y225750D02*
D03*
X258520D02*
D03*
X110730Y225000D02*
D03*
X130270D02*
D03*
X539480Y307500D02*
D03*
X559020D02*
D03*
X539480Y270000D02*
D03*
X559020D02*
D03*
D24*
X608250Y267500D02*
D03*
Y315500D02*
D03*
Y158500D02*
D03*
Y206500D02*
D03*
D25*
X342000Y262500D02*
D03*
Y257500D02*
D03*
Y252500D02*
D03*
Y247500D02*
D03*
Y242500D02*
D03*
Y237500D02*
D03*
Y232500D02*
D03*
Y227500D02*
D03*
Y222500D02*
D03*
Y217500D02*
D03*
Y212500D02*
D03*
Y207500D02*
D03*
Y202500D02*
D03*
Y197500D02*
D03*
Y192500D02*
D03*
Y187500D02*
D03*
X458000Y187500D02*
D03*
Y192500D02*
D03*
Y197500D02*
D03*
Y202500D02*
D03*
Y207500D02*
D03*
Y212500D02*
D03*
Y217500D02*
D03*
Y222500D02*
D03*
Y227500D02*
D03*
Y232500D02*
D03*
Y237500D02*
D03*
Y242500D02*
D03*
Y247500D02*
D03*
Y252500D02*
D03*
Y257500D02*
D03*
Y262500D02*
D03*
D26*
X362500Y167000D02*
D03*
X367500D02*
D03*
X372500D02*
D03*
X377500D02*
D03*
X382500D02*
D03*
X387500D02*
D03*
X392500D02*
D03*
X397500D02*
D03*
X402500D02*
D03*
X407500D02*
D03*
X412500D02*
D03*
X417500D02*
D03*
X422500D02*
D03*
X427500D02*
D03*
X432500D02*
D03*
X437500D02*
D03*
Y283000D02*
D03*
X432500D02*
D03*
X427500D02*
D03*
X422500D02*
D03*
X417500D02*
D03*
X412500D02*
D03*
X407500D02*
D03*
X402500D02*
D03*
X397500D02*
D03*
X392500D02*
D03*
X387500D02*
D03*
X382500D02*
D03*
X377500D02*
D03*
X372500D02*
D03*
X367500D02*
D03*
X362500D02*
D03*
D27*
X151996Y123500D02*
D03*
Y130000D02*
D03*
Y136500D02*
D03*
Y143000D02*
D03*
Y149500D02*
D03*
Y156000D02*
D03*
Y162500D02*
D03*
X209504D02*
D03*
Y156000D02*
D03*
Y149500D02*
D03*
Y143000D02*
D03*
Y136500D02*
D03*
Y130000D02*
D03*
D28*
Y123500D02*
D03*
M02*
