G04*
G04 #@! TF.GenerationSoftware,Altium Limited,Altium Designer,24.2.2 (26)*
G04*
G04 Layer_Color=65535*
%FSLAX44Y44*%
%MOMM*%
G71*
G04*
G04 #@! TF.SameCoordinates,0955CF80-6420-4CC4-8797-52894B4AD841*
G04*
G04*
G04 #@! TF.FilePolarity,Positive*
G04*
G01*
G75*
%ADD10C,0.2500*%
%ADD11C,0.6000*%
%ADD12C,0.5000*%
%ADD13C,0.2000*%
%ADD14C,0.2540*%
%ADD15R,0.8000X0.1500*%
D10*
X497500Y361250D02*
X495625Y362332D01*
Y360168D01*
X497500Y361250D01*
X127000Y348250D02*
X125125Y349333D01*
Y347168D01*
X127000Y348250D01*
X346100Y32000D02*
X344225Y33083D01*
Y30917D01*
X346100Y32000D01*
X343250Y269500D02*
X341375Y270583D01*
Y268417D01*
X343250Y269500D01*
X474100Y32000D02*
X472225Y33083D01*
Y30917D01*
X474100Y32000D01*
X218100D02*
X216225Y33083D01*
Y30917D01*
X218100Y32000D01*
X226500Y123500D02*
X224625Y124583D01*
Y122417D01*
X226500Y123500D01*
X58850Y208750D02*
X56975Y209832D01*
Y207668D01*
X58850Y208750D01*
D11*
X367000Y261000D02*
X365870Y263346D01*
X363332Y263925D01*
X361297Y262302D01*
Y259698D01*
X363332Y258075D01*
X365870Y258654D01*
X367000Y261000D01*
D12*
X189727Y125500D02*
X188477Y127665D01*
X185977D01*
X184727Y125500D01*
X185977Y123335D01*
X188477D01*
X189727Y125500D01*
D13*
X469849Y270119D02*
X498911D01*
X469849Y292681D02*
X498911D01*
X469849Y325431D02*
X498911D01*
X469849Y302869D02*
X498911D01*
X361750Y374700D02*
X491750D01*
Y347800D02*
Y374700D01*
X361750Y347800D02*
X491750D01*
X361750D02*
Y374700D01*
X96689Y76249D02*
Y108371D01*
X119311Y76249D02*
Y108371D01*
X264981Y155709D02*
Y187831D01*
X242359Y155709D02*
Y187831D01*
X96519Y300209D02*
Y329271D01*
X119081Y300209D02*
Y329271D01*
X157500Y292500D02*
Y357500D01*
Y292500D02*
X192500D01*
Y357500D01*
X157500D02*
X192500D01*
X235579Y322009D02*
Y351071D01*
X258141Y322009D02*
Y351071D01*
X266579Y322009D02*
Y351071D01*
X289141Y322009D02*
Y351071D01*
X264981Y105139D02*
Y137261D01*
X242360Y105139D02*
Y137261D01*
X232689Y214439D02*
X264811D01*
X232689Y237061D02*
X264811D01*
X90498Y260701D02*
Y362300D01*
X9500Y260701D02*
Y362301D01*
X90499D01*
X9500Y260701D02*
X90498D01*
X104439Y213689D02*
X136561D01*
X104439Y236311D02*
X136561D01*
X96689Y126939D02*
Y159061D01*
X119311Y126939D02*
Y159061D01*
X533190Y296189D02*
X565310D01*
X533190Y318811D02*
X565310D01*
X533190Y258689D02*
X565310D01*
X533190Y281311D02*
X565310D01*
X623000Y323000D02*
X627250D01*
X589250D02*
X593500D01*
X589250Y260000D02*
Y323000D01*
X623000Y260000D02*
X627250D01*
X589250D02*
X593500D01*
X627250D02*
Y323000D01*
X349450Y18350D02*
Y70650D01*
Y18350D02*
X454050D01*
X349450Y70650D02*
X454050D01*
Y18350D02*
Y70650D01*
X354000Y179000D02*
Y271000D01*
X446000Y179000D02*
Y271000D01*
X354000D02*
X446000D01*
X354000Y179000D02*
X446000D01*
X524690Y166439D02*
Y198561D01*
X547311Y166439D02*
Y198561D01*
X578531Y167969D02*
Y197031D01*
X555970Y167969D02*
Y197031D01*
X582050Y18350D02*
Y70650D01*
X477450D02*
X582050D01*
X477450Y18350D02*
X582050D01*
X477450D02*
Y70650D01*
X326050Y18350D02*
Y70650D01*
X221450D02*
X326050D01*
X221450Y18350D02*
X326050D01*
X221450D02*
Y70650D01*
X194727Y118000D02*
Y168000D01*
X166773D02*
X194727D01*
X166773Y118000D02*
Y168000D01*
Y118000D02*
X194727D01*
X16350Y71750D02*
X83650D01*
Y202750D01*
X16350D02*
X83650D01*
X16350Y71750D02*
Y202750D01*
X300969Y272219D02*
Y301281D01*
X323531Y272219D02*
Y301281D01*
X623000Y214000D02*
X627250D01*
X589250D02*
X593500D01*
X589250Y151000D02*
Y214000D01*
X623000Y151000D02*
X627250D01*
X589250D02*
X593500D01*
X627250D02*
Y214000D01*
D14*
X60889Y29997D02*
Y18000D01*
X56890Y29997D02*
X64888D01*
X66316D02*
Y18000D01*
Y23713D02*
X68030Y25427D01*
X69173Y25998D01*
X70887D01*
X72030Y25427D01*
X72601Y23713D01*
Y18000D01*
X82599Y25998D02*
Y18000D01*
Y24284D02*
X81456Y25427D01*
X80314Y25998D01*
X78600D01*
X77457Y25427D01*
X76314Y24284D01*
X75743Y22570D01*
Y21428D01*
X76314Y19714D01*
X77457Y18571D01*
X78600Y18000D01*
X80314D01*
X81456Y18571D01*
X82599Y19714D01*
X85798Y25998D02*
Y18000D01*
Y22570D02*
X86369Y24284D01*
X87512Y25427D01*
X88655Y25998D01*
X90368D01*
X91454D02*
Y20285D01*
X92025Y18571D01*
X93168Y18000D01*
X94882D01*
X96024Y18571D01*
X97738Y20285D01*
Y25998D02*
Y18000D01*
X107165Y24284D02*
X106594Y25427D01*
X104880Y25998D01*
X103166D01*
X101452Y25427D01*
X100880Y24284D01*
X101452Y23142D01*
X102594Y22570D01*
X105451Y21999D01*
X106594Y21428D01*
X107165Y20285D01*
Y19714D01*
X106594Y18571D01*
X104880Y18000D01*
X103166D01*
X101452Y18571D01*
X100880Y19714D01*
X109679Y29997D02*
Y18000D01*
Y23713D02*
X111393Y25427D01*
X112535Y25998D01*
X114249D01*
X115392Y25427D01*
X115963Y23713D01*
Y18000D01*
X125961Y25998D02*
Y18000D01*
Y24284D02*
X124818Y25427D01*
X123676Y25998D01*
X121962D01*
X120819Y25427D01*
X119677Y24284D01*
X119105Y22570D01*
Y21428D01*
X119677Y19714D01*
X120819Y18571D01*
X121962Y18000D01*
X123676D01*
X124818Y18571D01*
X125961Y19714D01*
X138587Y29997D02*
Y18000D01*
Y29997D02*
X146014D01*
X138587Y24284D02*
X143157D01*
X150241Y25998D02*
X149099Y25427D01*
X147956Y24284D01*
X147385Y22570D01*
Y21428D01*
X147956Y19714D01*
X149099Y18571D01*
X150241Y18000D01*
X151955D01*
X153098Y18571D01*
X154241Y19714D01*
X154812Y21428D01*
Y22570D01*
X154241Y24284D01*
X153098Y25427D01*
X151955Y25998D01*
X150241D01*
X157440D02*
Y18000D01*
Y23713D02*
X159154Y25427D01*
X160296Y25998D01*
X162010D01*
X163153Y25427D01*
X163724Y23713D01*
Y18000D01*
X173151Y24284D02*
X172579Y25427D01*
X170866Y25998D01*
X169152D01*
X167438Y25427D01*
X166866Y24284D01*
X167438Y23142D01*
X168580Y22570D01*
X171437Y21999D01*
X172579Y21428D01*
X173151Y20285D01*
Y19714D01*
X172579Y18571D01*
X170866Y18000D01*
X169152D01*
X167438Y18571D01*
X166866Y19714D01*
X175665Y22570D02*
X182520D01*
Y23713D01*
X181949Y24856D01*
X181378Y25427D01*
X180235Y25998D01*
X178521D01*
X177379Y25427D01*
X176236Y24284D01*
X175665Y22570D01*
Y21428D01*
X176236Y19714D01*
X177379Y18571D01*
X178521Y18000D01*
X180235D01*
X181378Y18571D01*
X182520Y19714D01*
X185091Y29997D02*
Y18000D01*
X190804Y25998D02*
X185091Y20285D01*
X187376Y22570D02*
X191376Y18000D01*
X200117Y25998D02*
Y18000D01*
Y24284D02*
X198974Y25427D01*
X197831Y25998D01*
X196117D01*
X194975Y25427D01*
X193832Y24284D01*
X193261Y22570D01*
Y21428D01*
X193832Y19714D01*
X194975Y18571D01*
X196117Y18000D01*
X197831D01*
X198974Y18571D01*
X200117Y19714D01*
X56890Y52070D02*
Y42073D01*
Y52070D02*
X60223D01*
X61651Y51594D01*
X62603Y50642D01*
X63079Y49690D01*
X63555Y48262D01*
Y45881D01*
X63079Y44453D01*
X62603Y43501D01*
X61651Y42549D01*
X60223Y42073D01*
X56890D01*
X65793Y45881D02*
X71506D01*
Y46834D01*
X71030Y47786D01*
X70554Y48262D01*
X69601Y48738D01*
X68173D01*
X67221Y48262D01*
X66269Y47310D01*
X65793Y45881D01*
Y44929D01*
X66269Y43501D01*
X67221Y42549D01*
X68173Y42073D01*
X69601D01*
X70554Y42549D01*
X71506Y43501D01*
X78885Y47310D02*
X78409Y48262D01*
X76981Y48738D01*
X75553D01*
X74124Y48262D01*
X73648Y47310D01*
X74124Y46357D01*
X75077Y45881D01*
X77457Y45405D01*
X78409Y44929D01*
X78885Y43977D01*
Y43501D01*
X78409Y42549D01*
X76981Y42073D01*
X75553D01*
X74124Y42549D01*
X73648Y43501D01*
X81932Y52070D02*
X82408Y51594D01*
X82884Y52070D01*
X82408Y52547D01*
X81932Y52070D01*
X82408Y48738D02*
Y42073D01*
X90359Y48738D02*
Y41121D01*
X89883Y39692D01*
X89407Y39216D01*
X88455Y38740D01*
X87026D01*
X86074Y39216D01*
X90359Y47310D02*
X89407Y48262D01*
X88455Y48738D01*
X87026D01*
X86074Y48262D01*
X85122Y47310D01*
X84646Y45881D01*
Y44929D01*
X85122Y43501D01*
X86074Y42549D01*
X87026Y42073D01*
X88455D01*
X89407Y42549D01*
X90359Y43501D01*
X93025Y48738D02*
Y42073D01*
Y46834D02*
X94453Y48262D01*
X95406Y48738D01*
X96834D01*
X97786Y48262D01*
X98262Y46834D01*
Y42073D01*
X100880Y45881D02*
X106594D01*
Y46834D01*
X106117Y47786D01*
X105641Y48262D01*
X104689Y48738D01*
X103261D01*
X102309Y48262D01*
X101357Y47310D01*
X100880Y45881D01*
Y44929D01*
X101357Y43501D01*
X102309Y42549D01*
X103261Y42073D01*
X104689D01*
X105641Y42549D01*
X106594Y43501D01*
X114449Y52070D02*
Y42073D01*
Y47310D02*
X113497Y48262D01*
X112545Y48738D01*
X111116D01*
X110164Y48262D01*
X109212Y47310D01*
X108736Y45881D01*
Y44929D01*
X109212Y43501D01*
X110164Y42549D01*
X111116Y42073D01*
X112545D01*
X113497Y42549D01*
X114449Y43501D01*
X124971Y52070D02*
Y42073D01*
Y47310D02*
X125923Y48262D01*
X126875Y48738D01*
X128303D01*
X129255Y48262D01*
X130208Y47310D01*
X130684Y45881D01*
Y44929D01*
X130208Y43501D01*
X129255Y42549D01*
X128303Y42073D01*
X126875D01*
X125923Y42549D01*
X124971Y43501D01*
X133302Y48738D02*
X136159Y42073D01*
X139015Y48738D02*
X136159Y42073D01*
X135206Y40168D01*
X134254Y39216D01*
X133302Y38740D01*
X132826D01*
X480091Y407190D02*
X481757Y405524D01*
Y402192D01*
X480091Y400526D01*
X478424D01*
X476758Y402192D01*
Y403858D01*
Y402192D01*
X475092Y400526D01*
X473426D01*
X471760Y402192D01*
Y405524D01*
X473426Y407190D01*
X481757Y397193D02*
X475092D01*
X471760Y393861D01*
X475092Y390529D01*
X481757D01*
X480091Y387196D02*
X481757Y385530D01*
Y382198D01*
X480091Y380532D01*
X478424D01*
X476758Y382198D01*
Y383864D01*
Y382198D01*
X475092Y380532D01*
X473426D01*
X471760Y382198D01*
Y385530D01*
X473426Y387196D01*
X456257Y405524D02*
X446260D01*
Y400525D01*
X447926Y398859D01*
X454591D01*
X456257Y400525D01*
Y405524D01*
Y395527D02*
Y392195D01*
Y393861D01*
X446260D01*
Y395527D01*
Y392195D01*
X456257Y382198D02*
Y385530D01*
X454591Y387196D01*
X447926D01*
X446260Y385530D01*
Y382198D01*
X447926Y380532D01*
X454591D01*
X456257Y382198D01*
X379691Y400526D02*
X381357Y402192D01*
Y405524D01*
X379691Y407190D01*
X373026D01*
X371360Y405524D01*
Y402192D01*
X373026Y400526D01*
X376358D01*
Y403858D01*
X371360Y397193D02*
X381357D01*
X371360Y390529D01*
X381357D01*
Y387196D02*
X371360D01*
Y382198D01*
X373026Y380532D01*
X379691D01*
X381357Y382198D01*
Y387196D01*
X405221Y400526D02*
X406887Y402192D01*
Y405524D01*
X405221Y407190D01*
X403554D01*
X401888Y405524D01*
Y402192D01*
X400222Y400526D01*
X398556D01*
X396890Y402192D01*
Y405524D01*
X398556Y407190D01*
X406887Y397193D02*
X396890D01*
X400222Y393861D01*
X396890Y390529D01*
X406887D01*
Y382198D02*
Y385530D01*
X405221Y387196D01*
X398556D01*
X396890Y385530D01*
Y382198D01*
X398556Y380532D01*
X405221D01*
X406887Y382198D01*
X429851Y400526D02*
X431517Y402192D01*
Y405524D01*
X429851Y407190D01*
X423186D01*
X421520Y405524D01*
Y402192D01*
X423186Y400526D01*
X431517Y397193D02*
X421520D01*
Y390529D01*
X431517Y387196D02*
X421520D01*
X424852D01*
X431517Y380532D01*
X426518Y385530D01*
X421520Y380532D01*
X21314Y290377D02*
X14650D01*
Y285378D01*
X17982Y287045D01*
X19648D01*
X21314Y285378D01*
Y282046D01*
X19648Y280380D01*
X16316D01*
X14650Y282046D01*
X24647Y290377D02*
Y283712D01*
X27979Y280380D01*
X31311Y283712D01*
Y290377D01*
X12934Y339501D02*
X11268Y341167D01*
X7936D01*
X6270Y339501D01*
Y332836D01*
X7936Y331170D01*
X11268D01*
X12934Y332836D01*
Y336168D01*
X9602D01*
X16267Y331170D02*
Y341167D01*
X22931Y331170D01*
Y341167D01*
X26263D02*
Y331170D01*
X31262D01*
X32928Y332836D01*
Y339501D01*
X31262Y341167D01*
X26263D01*
X21560Y104680D02*
X28224D01*
X24892D01*
Y94683D01*
X31557Y101348D02*
X38221Y94683D01*
X34889Y98015D01*
X38221Y101348D01*
X31557Y94683D01*
X21509Y120610D02*
Y130607D01*
X26507D01*
X28173Y128941D01*
Y125608D01*
X26507Y123942D01*
X21509D01*
X24841D02*
X28173Y120610D01*
X31505Y127275D02*
X38170Y120610D01*
X34838Y123942D01*
X38170Y127275D01*
X31505Y120610D01*
X19345Y153591D02*
X17678Y155257D01*
X14346D01*
X12680Y153591D01*
Y146926D01*
X14346Y145260D01*
X17678D01*
X19345Y146926D01*
Y150258D01*
X16012D01*
X22677Y145260D02*
Y155257D01*
X29341Y145260D01*
Y155257D01*
X32674D02*
Y145260D01*
X37672D01*
X39338Y146926D01*
Y153591D01*
X37672Y155257D01*
X32674D01*
X29204Y179427D02*
X22540D01*
Y174428D01*
X25872Y176094D01*
X27538D01*
X29204Y174428D01*
Y171096D01*
X27538Y169430D01*
X24206D01*
X22540Y171096D01*
X32537Y179427D02*
Y172762D01*
X35869Y169430D01*
X39201Y172762D01*
Y179427D01*
X130249Y82392D02*
Y92388D01*
X135248D01*
X136914Y90722D01*
Y87390D01*
X135248Y85724D01*
X130249D01*
X133582D02*
X136914Y82392D01*
X140246Y84058D02*
X141912Y82392D01*
X145245D01*
X146911Y84058D01*
Y90722D01*
X145245Y92388D01*
X141912D01*
X140246Y90722D01*
Y89056D01*
X141912Y87390D01*
X146911D01*
X274509Y178162D02*
Y188158D01*
X279508D01*
X281174Y186492D01*
Y183160D01*
X279508Y181494D01*
X274509D01*
X277842D02*
X281174Y178162D01*
X291171Y188158D02*
X287838Y186492D01*
X284506Y183160D01*
Y179828D01*
X286172Y178162D01*
X289505D01*
X291171Y179828D01*
Y181494D01*
X289505Y183160D01*
X284506D01*
X107757Y348691D02*
X106090Y350357D01*
X102758D01*
X101092Y348691D01*
Y342026D01*
X102758Y340360D01*
X106090D01*
X107757Y342026D01*
X111089Y340360D02*
X114421D01*
X112755D01*
Y350357D01*
X111089Y348691D01*
X364179Y329442D02*
Y339438D01*
X369178D01*
X370844Y337772D01*
Y334440D01*
X369178Y332774D01*
X364179D01*
X380841Y329442D02*
X374176D01*
X380841Y336106D01*
Y337772D01*
X379174Y339438D01*
X375842D01*
X374176Y337772D01*
X173736Y191607D02*
Y183276D01*
X175402Y181610D01*
X178734D01*
X180401Y183276D01*
Y191607D01*
X183733Y189941D02*
X185399Y191607D01*
X188731D01*
X190397Y189941D01*
Y188274D01*
X188731Y186608D01*
X187065D01*
X188731D01*
X190397Y184942D01*
Y183276D01*
X188731Y181610D01*
X185399D01*
X183733Y183276D01*
X387804Y233867D02*
Y221172D01*
X390343Y218633D01*
X395422D01*
X397961Y221172D01*
Y233867D01*
X413196Y218633D02*
X403039D01*
X413196Y228789D01*
Y231328D01*
X410657Y233867D01*
X405578D01*
X403039Y231328D01*
X162560Y377027D02*
Y368696D01*
X164226Y367030D01*
X167558D01*
X169224Y368696D01*
Y377027D01*
X172557Y367030D02*
X175889D01*
X174223D01*
Y377027D01*
X172557Y375361D01*
X601533Y133299D02*
X599866Y134965D01*
X596534D01*
X594868Y133299D01*
Y131632D01*
X596534Y129966D01*
X599866D01*
X601533Y128300D01*
Y126634D01*
X599866Y124968D01*
X596534D01*
X594868Y126634D01*
X604865Y134965D02*
Y124968D01*
X608197Y128300D01*
X611529Y124968D01*
Y134965D01*
X621526Y124968D02*
X614862D01*
X621526Y131632D01*
Y133299D01*
X619860Y134965D01*
X616528D01*
X614862Y133299D01*
X603311Y347421D02*
X601644Y349087D01*
X598312D01*
X596646Y347421D01*
Y345755D01*
X598312Y344088D01*
X601644D01*
X603311Y342422D01*
Y340756D01*
X601644Y339090D01*
X598312D01*
X596646Y340756D01*
X606643Y349087D02*
Y339090D01*
X609975Y342422D01*
X613307Y339090D01*
Y349087D01*
X616640Y339090D02*
X619972D01*
X618306D01*
Y349087D01*
X616640Y347421D01*
X99568Y172720D02*
Y182717D01*
X104566D01*
X106233Y181051D01*
Y177718D01*
X104566Y176052D01*
X99568D01*
X102900D02*
X106233Y172720D01*
X109565Y181051D02*
X111231Y182717D01*
X114563D01*
X116229Y181051D01*
Y179384D01*
X114563Y177718D01*
X116229Y176052D01*
Y174386D01*
X114563Y172720D01*
X111231D01*
X109565Y174386D01*
Y176052D01*
X111231Y177718D01*
X109565Y179384D01*
Y181051D01*
X111231Y177718D02*
X114563D01*
X277469Y91862D02*
Y101858D01*
X282468D01*
X284134Y100192D01*
Y96860D01*
X282468Y95194D01*
X277469D01*
X280802D02*
X284134Y91862D01*
X287466Y101858D02*
X294131D01*
Y100192D01*
X287466Y93528D01*
Y91862D01*
X541020Y328422D02*
Y338419D01*
X546018D01*
X547685Y336753D01*
Y333420D01*
X546018Y331754D01*
X541020D01*
X544352D02*
X547685Y328422D01*
X557681Y338419D02*
X551017D01*
Y333420D01*
X554349Y335087D01*
X556015D01*
X557681Y333420D01*
Y330088D01*
X556015Y328422D01*
X552683D01*
X551017Y330088D01*
X541020Y239014D02*
Y249011D01*
X546018D01*
X547685Y247345D01*
Y244012D01*
X546018Y242346D01*
X541020D01*
X544352D02*
X547685Y239014D01*
X556015D02*
Y249011D01*
X551017Y244012D01*
X557681D01*
X531114Y152908D02*
X541111D01*
Y147910D01*
X539445Y146243D01*
X536112D01*
X534446Y147910D01*
Y152908D01*
Y149576D02*
X531114Y146243D01*
X539445Y142911D02*
X541111Y141245D01*
Y137913D01*
X539445Y136247D01*
X537779D01*
X536112Y137913D01*
Y139579D01*
Y137913D01*
X534446Y136247D01*
X532780D01*
X531114Y137913D01*
Y141245D01*
X532780Y142911D01*
X240538Y246634D02*
Y256631D01*
X245536D01*
X247202Y254965D01*
Y251632D01*
X245536Y249966D01*
X240538D01*
X243870D02*
X247202Y246634D01*
X257199D02*
X250535D01*
X257199Y253298D01*
Y254965D01*
X255533Y256631D01*
X252201D01*
X250535Y254965D01*
X113792Y245872D02*
Y255869D01*
X118790D01*
X120456Y254203D01*
Y250870D01*
X118790Y249204D01*
X113792D01*
X117124D02*
X120456Y245872D01*
X123789D02*
X127121D01*
X125455D01*
Y255869D01*
X123789Y254203D01*
X472948Y80518D02*
Y90515D01*
X477946D01*
X479613Y88849D01*
Y85516D01*
X477946Y83850D01*
X472948D01*
X487943Y80518D02*
Y90515D01*
X482945Y85516D01*
X489609D01*
X344932Y80518D02*
Y90515D01*
X349930D01*
X351596Y88849D01*
Y85516D01*
X349930Y83850D01*
X344932D01*
X354929Y88849D02*
X356595Y90515D01*
X359927D01*
X361593Y88849D01*
Y87183D01*
X359927Y85516D01*
X358261D01*
X359927D01*
X361593Y83850D01*
Y82184D01*
X359927Y80518D01*
X356595D01*
X354929Y82184D01*
X216916Y80518D02*
Y90515D01*
X221914D01*
X223580Y88849D01*
Y85516D01*
X221914Y83850D01*
X216916D01*
X226913Y80518D02*
X230245D01*
X228579D01*
Y90515D01*
X226913Y88849D01*
X48320Y228945D02*
X44988D01*
X46654D01*
Y220614D01*
X44988Y218948D01*
X43322D01*
X41656Y220614D01*
X58317Y218948D02*
X51653D01*
X58317Y225613D01*
Y227279D01*
X56651Y228945D01*
X53319D01*
X51653Y227279D01*
X66360Y378998D02*
X63028D01*
X64694D01*
Y370668D01*
X63028Y369002D01*
X61362D01*
X59696Y370668D01*
X69692Y369002D02*
X73025D01*
X71358D01*
Y378998D01*
X69692Y377332D01*
X196596Y256631D02*
Y246634D01*
X201594D01*
X203260Y248300D01*
Y254965D01*
X201594Y256631D01*
X196596D01*
X213257Y246634D02*
X206593D01*
X213257Y253298D01*
Y254965D01*
X211591Y256631D01*
X208259D01*
X206593Y254965D01*
X154686Y256885D02*
Y246888D01*
X159684D01*
X161350Y248554D01*
Y255219D01*
X159684Y256885D01*
X154686D01*
X164683Y246888D02*
X168015D01*
X166349D01*
Y256885D01*
X164683Y255219D01*
X514034Y316672D02*
X512368Y318338D01*
X509035D01*
X507369Y316672D01*
Y310008D01*
X509035Y308342D01*
X512368D01*
X514034Y310008D01*
X517366Y318338D02*
X524031D01*
Y316672D01*
X517366Y310008D01*
Y308342D01*
X514034Y283942D02*
X512368Y285608D01*
X509035D01*
X507369Y283942D01*
Y277278D01*
X509035Y275612D01*
X512368D01*
X514034Y277278D01*
X524031Y285608D02*
X520698Y283942D01*
X517366Y280610D01*
Y277278D01*
X519032Y275612D01*
X522365D01*
X524031Y277278D01*
Y278944D01*
X522365Y280610D01*
X517366D01*
X311973Y320751D02*
X310306Y322417D01*
X306974D01*
X305308Y320751D01*
Y314086D01*
X306974Y312420D01*
X310306D01*
X311973Y314086D01*
X321969Y322417D02*
X315305D01*
Y317418D01*
X318637Y319084D01*
X320303D01*
X321969Y317418D01*
Y314086D01*
X320303Y312420D01*
X316971D01*
X315305Y314086D01*
X570687Y150308D02*
X572353Y151974D01*
Y155306D01*
X570687Y156972D01*
X564022D01*
X562356Y155306D01*
Y151974D01*
X564022Y150308D01*
X562356Y141977D02*
X572353D01*
X567354Y146975D01*
Y140311D01*
X276159Y370535D02*
X274492Y372201D01*
X271160D01*
X269494Y370535D01*
Y363870D01*
X271160Y362204D01*
X274492D01*
X276159Y363870D01*
X279491Y370535D02*
X281157Y372201D01*
X284489D01*
X286155Y370535D01*
Y368868D01*
X284489Y367202D01*
X282823D01*
X284489D01*
X286155Y365536D01*
Y363870D01*
X284489Y362204D01*
X281157D01*
X279491Y363870D01*
X245170Y370535D02*
X243504Y372201D01*
X240172D01*
X238506Y370535D01*
Y363870D01*
X240172Y362204D01*
X243504D01*
X245170Y363870D01*
X255167Y362204D02*
X248503D01*
X255167Y368868D01*
Y370535D01*
X253501Y372201D01*
X250169D01*
X248503Y370535D01*
D15*
X161250Y238500D02*
D03*
X204998Y238250D02*
D03*
M02*
